<svg xmlns="http://www.w3.org/2000/svg" xmlns:xlink="http://www.w3.org/1999/xlink" width="22" height="22" viewBox="0 0 22 22">
    <defs>
        <path id="a" d="M20 6h-2v13a2 2 0 0 1-2 2H6a2 2 0 0 1-2-2V6H2a3 3 0 0 1 3-3h4v-.5A1.5 1.5 0 0 1 10.5 1h1A1.5 1.5 0 0 1 13 2.5V3h4a3 3 0 0 1 3 3zm-4.5 13a.5.5 0 0 0 .5-.5V6H6v12.5a.5.5 0 0 0 .5.5h9zM7 18V7h2v11H7zm3 0V7h2v11h-2zm3 0V7h2v11h-2z"/>
    </defs>
    <g fill="none" fill-rule="evenodd">
        <mask id="b" fill="#fff">
            <use xlink:href="#a"/>
        </mask>
        <use fill="#000" xlink:href="#a"/>
        <g fill="#fff" mask="url(#b)">
            <path d="M0 0h22v22H0z"/>
        </g>
    </g>
</svg>
