<svg xmlns="http://www.w3.org/2000/svg" xmlns:xlink="http://www.w3.org/1999/xlink" width="401" height="402" viewBox="0 0 401 402">
    <defs>
        <path id="a" d="M0 .75h400.25V401H0z"/>
        <path id="c" d="M0 401.25h400.25V1H0z"/>
    </defs>
    <g fill="none" fill-rule="evenodd" opacity=".1">
        <g transform="translate(0 .25)">
            <mask id="b" fill="#fff">
                <use xlink:href="#a"/>
            </mask>
            <path fill="#FFF" d="M398.47 383.784a1.85 1.85 0 0 0-.382-.14c-.114-.47-.35-1.09-.984-1.536-.573-.404-1.36-.47-2.284-.372.02-.105.045-.209.063-.293.093-.412.188-.839.199-1.278.028-1.047.003-2.092-.021-3.102l-.02-.877c-.035-1.952-.443-3.528-1.244-4.815a9.101 9.101 0 0 0-.593-.829c-.222-.287-.384-.495-.5-.757-.187-.425-.343-.865-.502-1.305-.096-.269-.194-.54-.294-.8a6.731 6.731 0 0 1-.25-.879 1.48 1.48 0 0 0-.122-.344c-.154-.83-.308-3.78.047-5.169.013-.048.024-.096.03-.145.014-.089.028-.178.049-.263a1.49 1.49 0 0 1 .086-.225c.025-.055.045-.11.063-.167 1.35-4.405 4.293-7.944 8.189-9.966v35.814c-.095-.085-.188-.173-.301-.25l-.188-.126c.272-.892-.12-1.727-1.041-2.176zm1.53-57.739v9.734c-2.74 1.742-5.441 2.11-6.79 1.245.924-1.526 3.858-6.26 6.79-10.979zm-31.548.741c-1.967-.43-4.102-3.697-4.288-8.253-.121-3.02.68-5.81 2.09-7.28.583-.609 1.205-.916 1.852-.917h.003c1.237 0 2.546 1.177 3.473 3.083-1.308 5.644-2.68 11.523-3.13 13.367zm7.32 21.005c4.425 2.471 6.622 7.397 5.515 11.925l-20.42-8.444c1.86-3.07 5.309-4.986 9.162-4.986 1.064 0 2.128.148 3.163.44l1.284.363 2.388-5.775-1.15-.654c-4.462-2.54-6.433-7.824-4.587-12.29.058-.14.176-.426 4.279-18.157l24.585 10.165c-9.618 15.451-9.735 15.737-9.793 15.878-1.468 3.55-5.037 5.843-9.09 5.843a10.79 10.79 0 0 1-2.836-.38l-1.277-.35-2.385 5.771 1.163.651zM400 290.721v9.695l-9.351-34.998 2.18-1.535 7.17 26.838zm-5.313-31.507A28.684 28.684 0 0 1 400 254.96v24.14l-5.313-19.886zm-32.62-73.123l2.894-7.692 28.69 10.795-2.894 7.693-28.69-10.796zm15.906 44.768l-9.15 24.32-28.69-10.796 9.15-24.319 28.69 10.795zm7.93.248a1.5 1.5 0 0 0-.837-.784l-40.762-15.338a1.502 1.502 0 0 0-1.932.875l-3.153 8.38-11.207-4.217 12.058-32.044 12.61 4.745c.373.141.786.126 1.148-.038.363-.164.645-.465.785-.838l1.765-4.692 3.228 1.214 31.498 11.852h.002l3.226 1.215-1.766 4.693a1.5 1.5 0 0 0 .876 1.931l6.558 2.47v18.362l-6.005 15.96-11.208-4.218 3.154-8.38c.14-.372.127-.785-.037-1.148zm11.69-70.607l-31.856-8.07c1.512-2.803 3.517-5.353 5.98-7.61 2.744 3.394 6.546 5.977 11.092 7.13 1.69.427 3.424.645 5.152.645 2.82 0 5.524-.576 8.007-1.607 1.085 3.15 1.63 6.338 1.626 9.512zM400 148.742v5.821a33.38 33.38 0 0 0-1.341-4.93c.46-.277.904-.58 1.34-.89zm-2.894-14.753a9.436 9.436 0 0 1-11.48 6.837c-5.05-1.279-8.115-6.428-6.836-11.478a9.434 9.434 0 0 1 11.479-6.837c5.049 1.28 8.116 6.428 6.837 11.478zm-6.101-14.387a12.433 12.433 0 0 0-15.124 9.009c-1.685 6.653 2.357 13.438 9.01 15.123A12.43 12.43 0 0 0 400 134.771v10.158a17.855 17.855 0 0 1-16.454 4.112c-9.578-2.427-15.396-12.194-12.97-21.774a17.898 17.898 0 0 1 21.773-12.97 17.819 17.819 0 0 1 7.65 4.114v10.243c-1.08-4.297-4.406-7.889-8.994-9.052zm8.995-16.89v1.671l-2.634-.98c-.054-.217-.042-.74.402-1.63l2.232.94zm-3.306-29.676a40.176 40.176 0 0 0 3.306-7.08v9.192l-3.306-2.112zm-7.065 8.934c1.967-1.853 3.808-4.007 5.458-6.4L400 78.707v.933a23.808 23.808 0 0 1-5.725 5.296l-4.646-2.966zm-2.378 2.041l4.049 2.585a23.96 23.96 0 0 1-10.114 2.227c-.853 0-1.7-.06-2.541-.15 2.905-.89 5.836-2.484 8.606-4.662zm-7.166-4.576l4.45 2.842c-3.65 2.665-7.516 4.217-11.005 4.217-.278 0-.541-.032-.81-.05 2.278-1.534 4.826-4.032 7.365-7.009zm-9.014-5.757l6.464 4.13c-4.265 4.917-7.612 7.282-9.017 7.282-.1 0-.152-.016-.165-.025-.802-.512-.316-4.646 2.718-11.387zm-7.028-4.488l4.507 2.88c-1.577 3.434-2.84 6.877-3.277 9.697-1.822-3.19-2.217-7.677-1.23-12.577zm8.749-21.302c-1.966 1.852-3.807 4.007-5.458 6.4l-5.414-3.457a23.85 23.85 0 0 1 6.225-5.91l4.647 2.967zm2.378-2.04l-4.051-2.587a23.966 23.966 0 0 1 10.116-2.227c.853 0 1.7.061 2.543.152-2.906.89-5.836 2.482-8.608 4.661zm7.166 4.575l-4.451-2.843c3.65-2.665 7.518-4.216 11.008-4.216.276 0 .539.031.807.051-2.278 1.533-4.826 4.03-7.364 7.008zm10.808 1.245a53.049 53.049 0 0 1-1.806 4.503l-6.452-4.12c4.265-4.919 7.612-7.284 9.018-7.284.099 0 .15.017.166.026.23.148.795 1.836-.926 6.875zm.748 6.134c.828-1.81 1.54-3.55 2.09-5.164.584-1.707.954-3.193 1.16-4.508 1.152 2.052 1.764 4.671 1.742 7.73-.011 1.556-.2 3.166-.522 4.797l-4.47-2.855zm-5.407 9.992a97.08 97.08 0 0 0 4.1-7.267l5.005 3.195c-.794 2.586-1.948 5.183-3.425 7.7l-5.68-3.628zm-1.612 2.53l5.687 3.631a36.53 36.53 0 0 1-5.57 6.33l-4.993-3.188a99.555 99.555 0 0 0 4.876-6.773zm-10.407-6.645l7.876 5.03a93.27 93.27 0 0 1-4.874 6.772l-7.096-4.53a93.662 93.662 0 0 1 4.094-7.272zm-2.532-1.618a101.498 101.498 0 0 0-4.071 7.287l-5.037-3.216c.789-2.546 1.935-5.145 3.43-7.696l5.678 3.625zm9.019-7.685l7.09 4.527a93.762 93.762 0 0 1-4.086 7.277l-7.878-5.03a94.105 94.105 0 0 1 4.874-6.774zm-7.404 5.158l-5.686-3.63a36.566 36.566 0 0 1 5.567-6.332l4.994 3.19a99.048 99.048 0 0 0-4.875 6.772zm-17.988 1.958a23.725 23.725 0 0 1 2.749-8.13l5.422 3.462c-1.487 2.523-2.655 5.1-3.494 7.655l-4.677-2.987zm3.269 15.877a23.91 23.91 0 0 1-2.951-7.294 24.086 24.086 0 0 1-.561-5.18l4.059 2.593c-.812 3.5-.98 6.864-.547 9.881zM16.648 102.932l-.882 5.743-3.846 1.801-4.69-2.876 1.383-2.729 5.338-2.5 2.697.561zm13.31 24.275l-3.936 8.33-8.795-2.497-3.607-20.027 3.138-1.47 13.2 15.664zM16.026 99.74l2.323-7.608c.97.228 1.379.554 1.509.735l-2.511 7.148-1.321-.275zM388.257 400.75l-6.567-.808a1.487 1.487 0 0 0-1.507.808h-3.003l1.093-2.225a5.935 5.935 0 0 0 .31-4.512 5.79 5.79 0 0 0-2.95-3.404l-11.511-5.66a5.724 5.724 0 0 0-2.548-.593c-2.243 0-4.336 1.31-5.333 3.334l-5.758 11.707a5.928 5.928 0 0 0-.461 1.353h-3.652a5.936 5.936 0 0 0 2.22-2.412l5.758-11.707a5.938 5.938 0 0 0 .31-4.513 5.775 5.775 0 0 0-2.951-3.403l-11.51-5.66a5.72 5.72 0 0 0-2.547-.593c-2.243 0-4.337 1.308-5.334 3.334l-5.758 11.707a5.93 5.93 0 0 0-.31 4.51 5.779 5.779 0 0 0 2.95 3.405l10.84 5.332h-3.426l-7.821-3.846a5.729 5.729 0 0 0-2.55-.593c-2.243 0-4.335 1.31-5.331 3.334l-.544 1.105h-7.792l.653-2.52c.549-2.119-.796-4.328-3.043-5.23l4.053-5.86a1.502 1.502 0 0 0-.396-2.097l-28.751-19.357a1.5 1.5 0 0 0-2.071.391l-8.432 12.186-2.04-.529a5.625 5.625 0 0 0-1.413-.18c-2.17 0-4.02 1.296-4.502 3.155l-5.193 20.041h-6.81c-.013-.092-.022-.185-.046-.277l-7.592-29.859c-.433-1.705-1.422-3.175-2.788-4.139-1.435-1.015-3.104-1.353-4.698-.947l-5.628 1.431c-.09-.882.232-1.662.509-2.155l.81.022a1.508 1.508 0 0 0 1.543-1.456 1.501 1.501 0 0 0-1.457-1.543l-27.781-.795c-2.765-.098-5.044 2.094-5.124 4.841l-.025.907c-.004.162-.001.324.01.483a1.56 1.56 0 0 0-.032.266l-.214 7.506-12.636 3.212c-3.208.816-5.07 4.425-4.15 8.045l3.678 14.458h-19.413l-10.857-10.858a1.5 1.5 0 0 0-2.121 0l-10.858 10.858h-7.727c3.15-2.875 5.356-6.587 6.249-10.713 1.24-5.73-.131-11.788-3.752-16.717a7.834 7.834 0 0 0-4.987-7.464c.124-1.312-.017-2.593-.428-3.693-.611-1.633-1.772-2.744-3.188-3.05l-9.29-2.013c-2.478-.533-4.992 1.46-6.084 4.647-.142-.008-.284-.023-.426-.023-3.156 0-5.978 1.931-7.193 4.752-5.338 2.99-9.094 7.938-10.335 13.67-1.241 5.73.13 11.787 3.75 16.715-.033 1.354.312 2.681.969 3.89h-6.768l-11.39-27.179a1.5 1.5 0 0 0-2.766 1.159l1.25 2.987-.923.387-3.348-7.988-11.668 4.891 3.348 7.987-2.118.888-3.347-7.989-11.668 4.89 3.347 7.988-2.116.887-3.348-7.987-11.668 4.89 3.347 7.987-.925.387-1.251-2.986a1.5 1.5 0 0 0-2.767 1.159l3.202 7.641H.25v-8.168a3.874 3.874 0 0 0 1.642.361c.967 0 1.925-.28 2.694-.505.195-.057.38-.112.556-.158 1.425-.378 2.809-.93 4.149-1.466l.519-.206 3.589 3.504a1.502 1.502 0 0 0 1.58.33l19.52-7.4a1.502 1.502 0 1 0 .165-2.732c-.066-.034-6.361-3.388-8.126-8.848.099-.306.189-.615.264-.94.09-.396.163-.798.245-1.27 1.404-4.497 1.242-9.437-.46-13.922-3.09-8.154-10.797-13.633-19.176-13.633-2.32 0-4.598.418-6.773 1.243-.131.05-.26.106-.388.16v-8.003a16.9 16.9 0 0 0 3.862-2.688c2.839-2.627 4.568-5.906 4.624-8.775.032-1.664-.5-3.094-1.541-4.135-1.127-1.127-2.746-1.67-4.611-1.609l.889-1.428.936-1.503-4.16-1.72v-5.303a1.452 1.452 0 0 0 1.11.395l37.142-3.156c.034-.003.065-.014.098-.019.049-.008.097-.015.145-.027.063-.016.123-.038.183-.062.027-.01.055-.015.082-.028l25.69-12.015 8.75 5.061a1.497 1.497 0 0 0 2.049-.548 1.499 1.499 0 0 0-.548-2.049l-6.937-4.013 4.763-2.226a1.502 1.502 0 0 0 .814-1.746l-12.303-46.042a1.501 1.501 0 0 0-1.313-1.108l-4.795-.437-.434-1.622a1.498 1.498 0 0 0-1.006-1.046c-11.285-3.486-22.81-.554-31.028 7.81-7.806-2.177-15.682-1.308-22.461 2.286v-14.597l9.139-24.286a1.5 1.5 0 0 0-.876-1.933L.25 207.42V148.56c3.844-2.797 6.74-6.877 7.977-11.754a20.788 20.788 0 0 0-2.306-15.844 20.848 20.848 0 0 0-5.671-6.199v-7.1l3.484 1.312 6.87 4.214 4.003 22.225 13.04 3.703 5.848-12.37-14.777-17.532 1.125-7.32.02.006 2.952-8.405.072-.3c.073-.557-.073-1.433-.703-2.225-.891-1.12-2.487-1.798-4.746-2.017l-1.22-.117-3.264 10.688L6.9 102.36.25 99.562v-7.807a32.819 32.819 0 0 0 8.676-9.128 32.857 32.857 0 0 0 2.39-30.932A1.5 1.5 0 1 0 8.57 52.9a29.863 29.863 0 0 1-2.171 28.113 29.955 29.955 0 0 1-6.148 6.95v-4.056a26.73 26.73 0 0 0 7.669-15.906c.044-.165.06-.332.048-.498.743-7.86-2.003-15.828-7.717-21.559v-9.646c2.79 1.676 5.517 3.922 7.866 6.952l1.538 1.986 9.73-21.94 5.924.728.348.22-5.458 12.306-.002.005-3.887-.043h-.016a1.5 1.5 0 0 0-1.371.891l-3.275 7.383a1.5 1.5 0 1 0 2.742 1.217l2.874-6.48 1.608.017-2.608 5.88a1.502 1.502 0 0 0 2.743 1.216l2.612-5.892 1.116 1.205-2.874 6.48a1.5 1.5 0 0 0 2.742 1.216l3.274-7.383a1.5 1.5 0 0 0-.27-1.627l-2.663-2.875 5.9-13.302 1.44.178a1.5 1.5 0 0 0 1.164-2.624l-21.18-18.3a1.488 1.488 0 0 0-.797-.354L.25 2.224V1h41.595l12.092 28.855-2.193.92 3.88 9.26 51.008-21.376-3.881-9.26-2.193.92L96.654 1h6.792c.047.093.092.187.15.276a7.765 7.765 0 0 0 4.915 3.413l16.594 3.593a7.766 7.766 0 0 0 1.649.177c3.155 0 5.977-1.93 7.192-4.752a22.005 22.005 0 0 0 3.8-2.707h7.763l-3.333 3.333a1.5 1.5 0 0 0 0 2.121l32.059 32.06a1.5 1.5 0 0 0 2.12 0l14.442-14.442a1.5 1.5 0 0 0 0-2.12L169.845 1h19.226l3.853 15.151c.433 1.705 1.423 3.175 2.787 4.14.13.091.267.16.4.241l-4.463 27.495a1.498 1.498 0 0 0 1.85 1.694l75.875-19.292a1.502 1.502 0 0 0 .817-2.373L253.474 6.472a6.44 6.44 0 0 0 .638-1.03c.662-1.345.834-2.904.553-4.442h6.708l-1.233 4.76c-.301 1.162-.038 2.428.722 3.473.706.97 1.773 1.681 3.004 2l38.275 9.92c.466.12.94.181 1.415.181 2.168 0 4.019-1.298 4.5-3.156L312.51 1h7.734l-5.09 10.353c-1.446 2.938-.261 6.488 2.639 7.915l11.51 5.661c.8.393 1.657.592 2.549.592 2.243 0 4.337-1.308 5.333-3.333l5.757-11.707c1.445-2.938.26-6.489-2.64-7.917L337.119 1h3.429l.16.08c.8.392 1.658.591 2.548.591a5.86 5.86 0 0 0 2.675-.67h4.043c-.446 2.525.763 5.138 3.149 6.312l11.512 5.66a5.704 5.704 0 0 0 2.547.593c2.245 0 4.338-1.308 5.334-3.333L377.056 1h3.036a1.482 1.482 0 0 0 .434 1.566l8.309 7.18-9.72 21.915 2.479-.167c.123-.008 9.55-.545 18.406 4.657v9.544a26.84 26.84 0 0 0-4.316-3.43 26.81 26.81 0 0 0-14.45-4.23 26.884 26.884 0 0 0-13.683 3.726 1.516 1.516 0 0 0-.3.177 26.87 26.87 0 0 0-8.706 8.517 26.76 26.76 0 0 0-4.067 11.494 1.426 1.426 0 0 0-.028.26 26.953 26.953 0 0 0 .5 8.512c1.548 7.014 5.735 13.006 11.788 16.872a26.804 26.804 0 0 0 14.448 4.23c4.932 0 9.643-1.335 13.724-3.753.074-.034.14-.076.207-.12A26.877 26.877 0 0 0 400 84.153v4.016a29.754 29.754 0 0 1-12.352 5.941c-7.795 1.72-15.792.3-22.521-3.996a29.731 29.731 0 0 1-13.004-18.334 1.497 1.497 0 0 0-1.803-1.117 1.502 1.502 0 0 0-1.117 1.804c1.858 7.89 6.475 14.701 13.066 19.337l-3.571 5.592-9.424-6.018a1.501 1.501 0 0 0-1.614 2.529l21.375 13.65a1.497 1.497 0 0 0 2.072-.457 1.5 1.5 0 0 0-.457-2.072l-9.424-6.017 3.58-5.606c5.03 2.905 10.632 4.418 16.342 4.418 2.376 0 4.77-.26 7.146-.784A32.813 32.813 0 0 0 400 91.931v7.526l-3.4-1.43-.69 1.013c-1.278 1.874-1.778 3.536-1.488 4.937.205.991.784 1.664 1.259 1.963l4.319 1.628v7.014a20.89 20.89 0 0 0-12.066-3.839 20.894 20.894 0 0 0-20.265 15.788c-1.416 5.587-.428 11.23 2.31 15.83-3.363 3.015-5.984 6.52-7.777 10.441a1.504 1.504 0 0 0 .996 2.078l35.462 8.986a1.492 1.492 0 0 0 1.249-.241c.034-.024.06-.055.09-.082v43.782l-4.096-1.543 1.765-4.692c.14-.373.126-.785-.037-1.148a1.503 1.503 0 0 0-.838-.784l-3.228-1.215 3.422-9.096a1.5 1.5 0 0 0-.875-1.932l-31.497-11.852a1.5 1.5 0 0 0-1.933.875l-3.422 9.096-3.228-1.214a1.503 1.503 0 0 0-1.933.875l-1.766 4.693-12.61-4.745a1.499 1.499 0 0 0-1.933.875l-13.114 34.852c-.141.373-.127.786.038 1.148.163.363.465.645.838.785l14.014 5.273c.777.29 1.64-.1 1.932-.875l3.154-8.38 1.824.686-9.68 25.722a1.501 1.501 0 0 0 .877 1.933l31.496 11.851a1.498 1.498 0 0 0 1.933-.875l9.68-25.722 1.824.686-3.154 8.38a1.499 1.499 0 0 0 .875 1.932l14.016 5.274a1.501 1.501 0 0 0 1.932-.876l3.725-9.9v14.07a31.557 31.557 0 0 0-8.078 6.283 1.503 1.503 0 0 0-.351 1.41l.433 1.621-3.938 2.771a1.5 1.5 0 0 0-.585 1.613l12.3 46.043c.044.163.126.3.219.43v5.483l-26.72-11.048-.4 1.724c-.121.53-.248 1.078-.378 1.64-1.274-1.359-2.802-2.116-4.392-2.116h-.008c-1.473.001-2.86.637-4.012 1.84-1.986 2.07-3.08 5.613-2.923 9.48.228 5.615 2.974 10.13 6.477 11.014-.878 4.82 1.222 9.895 5.462 12.883l-.407.981a14.522 14.522 0 0 0-2.67-.248c-5.606 0-10.556 3.212-12.612 8.183l-.573 1.386 26.175 10.823.573-1.386c2.435-5.887.19-12.716-5.215-16.413l.405-.979c.77.132 1.547.2 2.326.2 4.374 0 8.316-2.085 10.639-5.462.946.563 2.075.846 3.313.846 1.542 0 3.245-.445 4.94-1.264v7.992c-5.271 2.22-9.273 6.661-11.033 12.315a4.37 4.37 0 0 0-.21.601 5.862 5.862 0 0 0-.098.49c-.381 1.605-.418 5.49.102 6.972.102.435.214.813.345 1.158.093.247.183.497.273.746.182.507.365 1.014.58 1.501.265.601.59 1.02.877 1.39.137.174.279.352.412.568.517.83.769 1.874.795 3.29l.019.89c.023.974.046 1.982.02 2.955-.002.146-.068.44-.126.701-.183.821-.435 1.946.175 2.894.239.372.704.85 1.562 1.03.414.086.918.063 1.443.007.036-.004.07-.008.107-.01.073.355.2.826.558 1.246.188.221.406.393.646.512.043.876.393 1.381 1.214 1.876.095.057.209.126.342.215.105.073.172.533.222.868.108.744.259 1.762 1.08 2.55.21.2.447.353.695.488v8.285h-11.743zm-12.676-3.549l-1.745 3.55h-3.46a1.478 1.478 0 0 0-.746-.879l-3.243-1.595 1.596-3.243a1.502 1.502 0 0 0-.685-2.009 1.504 1.504 0 0 0-2.008.685l-1.595 3.244-3.246-1.597a1.5 1.5 0 0 0-1.323 2.694l3.244 1.595-.542 1.104h-8.663l.01-.029 5.758-11.707a2.97 2.97 0 0 1 2.64-1.658c.429 0 .84.096 1.225.284l11.512 5.662c.677.333 1.183.92 1.426 1.654a2.952 2.952 0 0 1-.155 2.245zm-33.55 1.186l-11.508-5.662a2.81 2.81 0 0 1-1.428-1.654 2.954 2.954 0 0 1 .156-2.244l5.757-11.707a2.97 2.97 0 0 1 2.642-1.658c.427 0 .84.095 1.223.285l11.51 5.66a2.8 2.8 0 0 1 1.428 1.654 2.956 2.956 0 0 1-.155 2.245l-5.758 11.707c-.686 1.396-2.488 2.052-3.866 1.374zm-18.295 2.363c.53-.877 1.483-1.439 2.506-1.439.429 0 .84.096 1.225.286l2.346 1.153h-6.077zm-46.055-21.686l6.962-10.062 26.263 17.681-3.776 5.458-14.936-3.87-1-2.14c-.841-1.982-2.048-4.095-4.618-4.762l-8.895-2.305zm8.143 5.21c1.083.281 1.79 1.102 2.63 3.076l1.32 2.83c.19.406.55.706.983.818l17.99 4.662c1.022.265 1.757 1.113 1.576 1.816l-.85 3.274h-44.936l4.999-19.289c.137-.527.808-.908 1.598-.908.219 0 .442.028.66.085l14.03 3.635zm-84.407 16.476h-9.314l-3.864-15.197c-.504-1.983.403-3.998 1.98-4.398l11.808-3.003-.633 22.075a5.96 5.96 0 0 0 .023.523zm36.205-30.54a1.504 1.504 0 0 0-1.048-.47l-.982-.027-.083-.074 4.735-1.204c.729-.184 1.52-.01 2.229.49.78.552 1.353 1.415 1.61 2.428l7.475 29.397H237.19l.842-29.467a1.507 1.507 0 0 0-.41-1.073zm-6.732-2.97c.08.823.334 1.61.739 2.36l-24.352-.696a1.97 1.97 0 0 1-1.383-.623 1.97 1.97 0 0 1-.543-1.417l.025-.905c.032-1.094.933-1.97 2.039-1.928l23.758.681a6.26 6.26 0 0 0-.283 2.527zm-26.496 33.072l.826-28.878c.6.284 1.267.45 1.97.47l27.8.792-.801 28.054h-29.752c-.04-.256-.043-.438-.043-.438zm-47.823-1.147a1.502 1.502 0 0 0-2.122 0l-1.584 1.585h-2.863l7.676-7.676 7.675 7.676h-8.47c.206-.534.119-1.153-.312-1.585zm-21.533.198l4.685-21.64c1.87 3.66 2.475 7.762 1.626 11.68-.848 3.917-3.096 7.402-6.311 9.96zm-15.473-37.074c.643-1.493 1.702-2.41 2.438-2.256l9.288 2.012c.398.086.767.511 1.012 1.168.205.548.288 1.205.272 1.893l-13.01-2.817zm14.168 6.137a4.828 4.828 0 0 1 3.693 5.733l-2.66 12.283-11.544-2.499.378-1.745a1.499 1.499 0 1 0-2.931-.635l-.378 1.745-11.544-2.499 2.66-12.283a4.852 4.852 0 0 1 4.719-3.802c.338 0 .679.037 1.013.11l16.594 3.592zm-30.577 24.035c-1.87-3.658-2.475-7.762-1.626-11.68.848-3.918 3.096-7.403 6.31-9.96L105.5 381.64l-.001.001v.001l-2.342 10.82zm2.962 7.19a4.788 4.788 0 0 1-.665-3.626l2.66-12.284 11.543 2.5-.978 4.515a1.5 1.5 0 0 0 2.932.634l.978-4.515 11.544 2.5-2.463 11.375h-24.543a4.723 4.723 0 0 1-1.008-1.099zm-49.574 1.1h-7.211l-2.505-5.977v-.002h-.001l-2.767-6.603 6.135-2.572 6.349 15.153zm1.882-9.212l3.86 9.211h-2.49l-3.487-8.324 2.117-.887zm14.324 9.211h-7.212l-4.924-11.753h-.001v-.002l-2.768-6.603 6.135-2.57 8.77 20.928zm-.54-14.988l6.282 14.988h-2.49l-5.908-14.1 2.117-.888zm11.669-4.89l.925-.388 8.492 20.266h-1.087l-8.33-19.878zm5.077 19.878h-7.211l-7.347-17.53-2.767-6.605 6.134-2.57 11.19 26.705zm-45.24-3.047l.924-.388 1.44 3.435h-1.088l-1.276-3.047zm-20.197-21.869c1.21 4.413 4.684 7.641 7.142 9.454l-15.851 6.01-3.596-3.512a1.5 1.5 0 0 0-1.582-.329c-.483.184-.967.378-1.454.572-1.256.501-2.555 1.021-3.801 1.351a18.91 18.91 0 0 0-.634.18c-.616.18-1.314.383-1.851.383-.372 0-.474-.097-.511-.133-.081-.089-.151-.563-.188-.819-.1-.679-.251-1.637-.943-2.41v-36.186c.472-.236.952-.46 1.45-.65a16.088 16.088 0 0 1 5.71-1.048c7.142 0 13.72 4.7 16.373 11.695 1.474 3.89 1.607 8.168.374 12.048-.02.065-.052.22-.063.286-.066.376-.131.753-.216 1.125a11.5 11.5 0 0 1-.333 1.104c-.096.283-.105.59-.026.88zM.249 325.642c.062-.097.123-.196.184-.294 2.004-.693 3.765-.603 4.64.273.457.456.68 1.114.664 1.955-.04 2.038-1.443 4.58-3.662 6.631a13.986 13.986 0 0 1-1.825 1.41v-9.975zm11.792-60.805a18.546 18.546 0 0 0-1.875 14.164 18.55 18.55 0 0 0 8.689 11.342 18.674 18.674 0 0 0 9.333 2.51c1.542 0 3.057-.199 4.52-.566l1.015 3.8c-9.892-2.207-19.766.43-27.24 7.278L.25 280.035v-25.23c6.42-3.906 14.085-4.99 21.677-2.87l.882 3.304.27 1.008c-4.59 1.318-8.591 4.362-11.038 8.59zm16.177-6.322c2.737 0 5.445.73 7.829 2.107 7.479 4.325 10.045 13.93 5.72 21.406a15.73 15.73 0 0 1-13.58 7.825c-2.737 0-5.445-.728-7.83-2.107a15.57 15.57 0 0 1-7.293-9.52 15.562 15.562 0 0 1 1.574-11.886 15.73 15.73 0 0 1 13.58-7.825zm35.644 29.52a30.88 30.88 0 0 0-9.763-.607l-9.05-5.235c4.137-8.688.972-19.268-7.5-24.169a18.683 18.683 0 0 0-9.331-2.509c-.738 0-1.47.051-2.193.137l-.386-1.444-.814-3.048c7.228-7.362 17.3-10.054 27.24-7.277l11.797 44.151zm-4.671 2.338c2.106.163 4.23.555 6.345 1.208a1.5 1.5 0 0 0 1.892-1.82l-11.424-42.757 2.655.242 11.708 43.817-5.52 2.581-5.656-3.27zm-23.634.954a18.713 18.713 0 0 0 7.997-6.533l5.954 3.444c-4.704 1.227-9.103 3.608-12.886 7.073l-1.065-3.984zm.127 8.353c.044.005.088.016.133.016l.024.003a1.5 1.5 0 0 0 .328-.038c.028-.006.052-.018.079-.025a1.59 1.59 0 0 0 .259-.099 1.446 1.446 0 0 0 .315-.213c.019-.017.04-.026.059-.044.008-.008.013-.018.022-.027.01-.012.025-.02.036-.032 4.56-4.904 10.337-7.866 16.528-8.694l8.067 4.666-23.554 11.015-35.623 3.027-2.107-7.884v-9.695l4.004 14.983a1.5 1.5 0 0 0 2.547.635c7.452-8.012 18.14-10.868 28.598-7.64.013.003.027.002.04.005.014.004.026.012.04.016.068.017.137.018.205.025zM.25 210.624l5.803 2.183L.25 228.228v-17.604zm0-91.979a17.969 17.969 0 0 1 3.093 3.852 17.806 17.806 0 0 1 1.976 13.573 17.903 17.903 0 0 1-5.07 8.63v-26.055zm0-15.828l4.98 2.095-.605 1.195-4.375-1.63v-1.66zm.249-23.792c-.08.108-.164.208-.25.31v-.468l.25.158zm4.347-10.669a23.698 23.698 0 0 1-2.737 8.138l-1.86-1.187v-9.886l4.597 2.935zM1.65 52.576A24.048 24.048 0 0 1 5.088 64.95l-4.027-2.57c.519-2.207.808-4.393.823-6.5a22.787 22.787 0 0 0-.233-3.306zm14.622-29.664L8.905 39.525C6.225 36.57 3.24 34.408.25 32.815V19.607l1.456 1.258c.225.194.503.317.798.354l13.769 1.693zm-8.314-9.836l11.399 7.193-16.035-1.972L.25 15.642V5.247l8.4 1.033L24.47 19.947 9.559 10.54a1.5 1.5 0 0 0-1.6 2.537zM90.616 4.71c.834 1.991.137 4.187-1.554 4.896a2.827 2.827 0 0 1-1.097.22c-1.446 0-2.846-1.024-3.483-2.545l-2.632-6.28h7.21l1.556 3.71zM65.643 1h7.212l3.976 9.487c.834 1.991.137 4.187-1.554 4.896a2.83 2.83 0 0 1-1.098.218c-1.445 0-2.845-1.022-3.483-2.544L65.643 1zM49.437 1h7.212l6.397 15.263c.834 1.992.136 4.188-1.555 4.897a2.822 2.822 0 0 1-1.097.218c-1.445 0-2.845-1.022-3.483-2.544L49.437 1zm51.706 12.326l1.562 3.725-45.473 19.056-1.561-3.725 45.472-19.056zm-44.44 15.37L45.097 1h1.087l7.96 18.993c1.099 2.623 3.61 4.385 6.25 4.385.782 0 1.54-.152 2.257-.45 3.216-1.35 4.635-5.307 3.16-8.824L59.902 1h2.489l5.539 13.217c1.1 2.622 3.61 4.384 6.25 4.384.782 0 1.54-.15 2.257-.45 3.217-1.349 4.635-5.307 3.16-8.824L76.109 1h2.489l3.118 7.44c1.099 2.622 3.61 4.385 6.25 4.385.78 0 1.54-.152 2.256-.452 3.217-1.348 4.635-5.306 3.162-8.822l-1.07-2.55h1.088l4.39 10.476-41.088 17.22zM131.615 1l-.143.658a4.851 4.851 0 0 1-4.718 3.801c-.34 0-.68-.036-1.014-.109l-16.595-3.592A4.709 4.709 0 0 1 107.448 1h24.167zm17.317 5.804c.293.293.677.44 1.06.44.385 0 .769-.147 1.06-.44l5.519-5.518a1.23 1.23 0 0 0 .205-.286h8.827l22.012 22.011-12.32 12.32-29.937-29.937L149.752 1h2.863l-3.683 3.682a1.5 1.5 0 0 0 0 2.122zM204.486 1h29.695l-.081 2.83-26.622-.76c-.55-.03-1.856-.277-2.39-.838-.35-.369-.516-.844-.602-1.232zm61.932 27.085L194.975 46.25l4.002-24.649 52.15-13.259 15.29 19.744zM251.676 1.213c.258 1.014.167 2.045-.256 2.903-.384.777-.995 1.308-1.723 1.493L199.67 18.33c-.731.184-1.521.011-2.23-.489-.78-.552-1.352-1.414-1.61-2.428L192.166 1h9.278c.1.841.422 2.196 1.47 3.3 1.5 1.58 4.118 1.752 4.442 1.768l28.158.804h.043a1.505 1.505 0 0 0 1.5-1.457L237.183 1h14.438l.055.213zm11.368 5.3L264.473 1h44.936l-4.256 16.425c-.136.526-.808.91-1.597.91-.221 0-.442-.03-.662-.087L264.619 8.33c-.552-.143-1.038-.457-1.332-.86-.134-.187-.346-.559-.243-.956zM330.32 1l8.656 4.257c1.417.696 1.987 2.446 1.27 3.9l-5.756 11.707c-.685 1.395-2.488 2.05-3.864 1.372l-11.511-5.66c-1.416-.696-1.987-2.446-1.272-3.899L323.587 1h6.734zm22.757 0h8.627l-.93 1.89a1.5 1.5 0 1 0 2.693 1.324L365.048 1h.075l3.183 1.565a1.502 1.502 0 0 0 2.009-.684c.139-.285.16-.59.115-.88h3.283l-3.89 7.908c-.685 1.396-2.49 2.05-3.865 1.373l-11.51-5.66c-1.33-.654-1.892-2.23-1.37-3.622zM400 19.391v13.292c-6.423-3.354-12.825-4.077-16.197-4.195l7.404-16.693L400 19.391zM386.22 3.522L400 5.216v10.211L386.22 3.522zM400 2.194L390.29 1H400v1.194zM0 401h400.25V.75H0V401z" mask="url(#b)"/>
        </g>
        <path fill="#FFF" d="M93.208 61.164c.182-.013.379-.02.591-.02 2.726 0 6.861 1.23 11.077 7.095a1.5 1.5 0 0 0 2.645-1.337 17.416 17.416 0 0 0-.854-2.066c1.686 1.628 3.099 3.973 3.251 7.301a1.501 1.501 0 0 0 1.389 1.427 1.51 1.51 0 0 0 1.582-1.208c.005-.022.019-.098.038-.219.354 1.746.449 4.014.017 6.938a1.5 1.5 0 0 0 2.797.944c.128-.23.797-1.474 1.298-3.03 1.015 1.907 1.79 4.651.533 7.725a1.502 1.502 0 0 0 2.355 1.715c.123-.103.588-.508 1.114-1.119a13.147 13.147 0 0 1-.484 4.99 1.498 1.498 0 0 0 .314 1.413l4.834 5.48.149 2.017c-6.826-8.7-7.329-8.7-8.104-8.7-.137 0-.275.02-.41.056-.12.027-.709.146-1.572.146-1.692 0-3.995-.43-6.214-2.237.296-.038.61-.064.933-.07a1.5 1.5 0 0 0 .618-2.854c-.061-.029-5.043-2.425-8.142-5.339.475.047.891.154 1.211.301.288.157.45.236.45.236a1.5 1.5 0 0 0 1.418-2.642 4.476 4.476 0 0 0-.428-.226c-1.252-.685-4.848-2.863-7.379-6.473.558.033 1.02-.265 1.299-.734a1.5 1.5 0 0 0-.296-1.889c-1.405-1.245-4.81-4.697-6.03-7.62m.507 8.16c1.403 3.557 3.881 6.287 6.141 8.195-.185.05-.303.09-.34.102a1.498 1.498 0 0 0-.781 2.225c1.613 2.534 4.873 4.86 7.444 6.42a1.5 1.5 0 0 0-.675 2.372c3.614 4.414 7.982 5.073 10.264 5.073.638 0 1.173-.049 1.569-.103 1.313 1.37 5.197 6.2 8.738 10.77l-.367 1.378 2.9.772 7.426-27.912-2.9-.772-4.757 17.883c-.032-.046-.052-.099-.089-.142l-4.637-5.255c1.387-5.8-.896-10.037-.998-10.222a1.496 1.496 0 0 0-1.615-.745c-.797-4.267-3.765-7.13-3.946-7.3a1.49 1.49 0 0 0-1.208-.4c-1.157-5.9-4.842-7.618-5.051-7.71a1.503 1.503 0 0 0-1.008-.076c-2.604-3.152-6.263-4.812-8.614-5.342a1.497 1.497 0 0 0-1.714.884l-.022.055c-2.133-1.02-4.087-1.332-5.676-1.332-1.761 0-2.884.401-3.007.447a1.502 1.502 0 0 0-.959 1.621c.38 2.605 2.361 5.42 4.188 7.532a1.5 1.5 0 0 0-.306 1.582M126.509 12.602c3.646 0 6.613 3.045 6.613 6.787s-2.967 6.787-6.613 6.787c-3.646 0-6.613-3.045-6.613-6.787s2.967-6.787 6.613-6.787m0 16.574c5.3 0 9.613-4.39 9.613-9.787 0-5.396-4.312-9.787-9.613-9.787-5.3 0-9.613 4.391-9.613 9.787 0 5.397 4.313 9.787 9.613 9.787"/>
        <path fill="#FFF" d="M104.918 38.585c.238-1.003.63-1.876 1.311-2.922.21-.323.44-.615.659-.856.03.339-.037.687-.162.97a1.5 1.5 0 0 0 2.088 1.923c.125-.067.268-.082.27-.11.01.073-.017.264-.198.76a1.5 1.5 0 0 0 1.041 1.967 1.5 1.5 0 0 0 .715 2.331c.02.205.014.446-.017.566-.16.599-.843 1.6-1.352 1.984-.556.419-1.255.588-1.871.448-.355-.081-.844-.306-1.163-.92-.992-1.906-1.839-3.97-1.322-6.141zm20.09-4.807v21.683l-15.486-5.628v-1.415a5.557 5.557 0 0 0 1.556-.824c1.04-.783 2.114-2.367 2.447-3.612.2-.765.236-2.239-.42-3.243a3.38 3.38 0 0 0 .061-1.258c-.14-.946-.587-1.462-1.084-1.747a2.937 2.937 0 0 0-.911-2.293 2.804 2.804 0 0 0-1.277-.713 4.59 4.59 0 0 0-.373-1.58v-5.701l15.487 6.331zm18.49-.627a4.563 4.563 0 0 0-.374 1.578 2.829 2.829 0 0 0-1.276.711 2.938 2.938 0 0 0-.912 2.293c-.498.284-.944.799-1.082 1.745-.059.388-.044.828.058 1.261-.66 1.009-.62 2.485-.417 3.244.326 1.237 1.4 2.823 2.446 3.612a5.496 5.496 0 0 0 1.556.823v1.415l-15.489 5.628V33.778l15.49-6.331v5.704zm4.603 5.434c.518 2.169-.33 4.233-1.321 6.141-.32.614-.81.839-1.163.92-.615.138-1.314-.029-1.87-.447-.513-.386-1.194-1.385-1.352-1.986a1.968 1.968 0 0 1-.02-.565 1.499 1.499 0 0 0 .714-2.332 1.5 1.5 0 0 0 1.041-1.964c-.184-.51-.208-.699-.255-.723a.556.556 0 0 1 .325.07 1.5 1.5 0 0 0 2.09-1.92 2.022 2.022 0 0 1-.16-.971c.22.241.452.534.662.857.68 1.047 1.071 1.92 1.309 2.92zm-41.58 9.911v2.388c0 .631.394 1.194.987 1.409l18.489 6.719c.01.004.02.002.03.005.156.053.317.085.481.085a1.5 1.5 0 0 0 .483-.085c.01-.003.02-.001.03-.005l18.489-6.719c.593-.215.988-.778.988-1.409v-2.388a4.674 4.674 0 0 0 2.942-2.386c1.202-2.307 2.328-5.088 1.58-8.219-.317-1.334-.845-2.525-1.714-3.862-.337-.517-1.438-2.073-2.809-2.655v-6.161c0-.5-.249-.967-.664-1.245a1.497 1.497 0 0 0-1.404-.144l-17.92 7.326-17.92-7.326a1.5 1.5 0 0 0-2.067 1.389v6.159c-1.38.583-2.476 2.143-2.809 2.658-.865 1.329-1.394 2.519-1.713 3.86-.748 3.136.377 5.915 1.578 8.22a4.676 4.676 0 0 0 2.944 2.386zM44.43 217.06l-10.862-9.805 8.51-8.72 10.861 9.806-8.51 8.72zm-11.346 16.234a36.675 36.675 0 0 0-3.444-.165c-6.586 0-11.589 1.847-14.284 3.14 1.441-3.311 3.243-9.358 1.95-17.117 2.756-1.577 11.011-6.292 15.188-8.528l8.446 7.625c-2.079 4.19-6.415 12.344-7.856 15.046zm-18.95 7.615c-.659.674-1.87.71-2.572.077l-.917-.83a1.605 1.605 0 0 1-.543-1.144 1.594 1.594 0 0 1 .465-1.167 1.818 1.818 0 0 1 1.315-.542c.36 0 .708.1 1.006.286.315.198.691.27 1.054.208-.026.367.084.732.312 1.026a1.577 1.577 0 0 1-.12 2.087zM56.6 208.227a1.497 1.497 0 0 0-.493-1.065l-13.089-11.82a1.5 1.5 0 0 0-2.079.066l-10.607 10.867a1.501 1.501 0 0 0-.426 1.096c.012.38.172.737.438 1.005-5.28 2.86-14.993 8.44-15.452 8.703-.559.321-.85.963-.723 1.595 1.396 6.984.005 12.501-1.286 15.732-1.604-.33-3.32.172-4.464 1.344a4.57 4.57 0 0 0-1.315 3.358 4.574 4.574 0 0 0 1.531 3.275l.917.83a4.844 4.844 0 0 0 3.255 1.244 4.873 4.873 0 0 0 3.474-1.452 4.554 4.554 0 0 0 1.16-4.391c2.564-1.125 6.784-2.483 12.2-2.483 1.352 0 2.734.085 4.106.254a1.491 1.491 0 0 0 1.505-.78c.246-.46 5.48-10.24 8.102-15.474l.136.124c.286.258.646.387 1.004.387.392 0 .781-.151 1.074-.452l10.607-10.868c.285-.291.44-.688.425-1.095z"/>
        <path fill="#FFF" d="M26.973 226.118c-1.32 0-2.393-1.007-2.393-2.245 0-1.237 1.074-2.244 2.393-2.244 1.32 0 2.394 1.007 2.394 2.244 0 1.238-1.074 2.245-2.394 2.245m0-7.489c-2.974 0-5.393 2.352-5.393 5.244s2.419 5.245 5.393 5.245c2.974 0 5.394-2.353 5.394-5.245s-2.42-5.244-5.394-5.244M64.415 238.757c-2.743 0-4.664-.711-5.408-2-1.051-1.822.093-5.054 3.087-8.646a45.373 45.373 0 0 0 4.828 4.077 45.381 45.381 0 0 0 1.115 6.217c-1.283.224-2.504.352-3.622.352m-5.409-23.75c.745-1.29 2.666-2 5.41-2 1.118 0 2.338.127 3.621.35a45.396 45.396 0 0 0-1.115 6.219 45.369 45.369 0 0 0-4.828 4.076c-2.995-3.592-4.139-6.824-3.087-8.645m18.837-10.875c2.11 0 4.343 2.62 5.957 7.032a45.358 45.358 0 0 0-5.957 2.13 45.381 45.381 0 0 0-5.957-2.13c1.614-4.412 3.847-7.032 5.957-7.032m13.428 8.875c2.742 0 4.663.71 5.407 2 .968 1.676.115 4.492-2.34 7.725-.24.316-.51.632-.773.948a45.565 45.565 0 0 0-4.797-4.073 45.414 45.414 0 0 0-1.12-6.25c1.284-.223 2.505-.35 3.623-.35m5.407 23.75c-.743 1.289-2.665 2-5.407 2-1.118 0-2.339-.128-3.623-.352.492-1.92.873-4.013 1.12-6.25a45.452 45.452 0 0 0 4.796-4.073c.264.317.534.633.773.949 2.457 3.234 3.31 6.049 2.342 7.726m-24.468-1.123c.651.376 1.305.723 1.959 1.067a39.868 39.868 0 0 1-3.174 1.027 39.248 39.248 0 0 1-.706-3.254c.626.392 1.264.78 1.922 1.16m13.184-1.164a39.79 39.79 0 0 1-.707 3.259 39.941 39.941 0 0 1-3.174-1.03 55.34 55.34 0 0 0 1.957-1.065 57.685 57.685 0 0 0 1.924-1.164m3.663-10.838c.885.737 1.703 1.49 2.47 2.249a38.547 38.547 0 0 1-2.47 2.249c.028-.74.044-1.487.044-2.248 0-.762-.016-1.51-.043-2.25m-7.545-8.57a39.63 39.63 0 0 1 3.174-1.027c.267 1.025.508 2.106.707 3.257a57.618 57.618 0 0 0-1.922-1.163 55.34 55.34 0 0 0-1.959-1.066m-11.225 2.227c.199-1.15.439-2.231.707-3.255a39.63 39.63 0 0 1 3.173 1.028 55.34 55.34 0 0 0-1.958 1.066c-.657.38-1.296.769-1.921 1.16m-3.665 10.838c-.9-.75-1.718-1.5-2.474-2.245a39.658 39.658 0 0 1 2.474-2.246 59.16 59.16 0 0 0-.044 2.246c0 .759.017 1.507.044 2.245m2.956-2.245c0-1.617.07-3.172.2-4.655a53.428 53.428 0 0 1 3.93-2.5 53.01 53.01 0 0 1 4.132-2.137 52.992 52.992 0 0 1 4.13 2.137 53.87 53.87 0 0 1 3.931 2.506 54.03 54.03 0 0 1 .198 4.649c0 1.614-.07 3.167-.198 4.648a53.679 53.679 0 0 1-3.933 2.506 52.992 52.992 0 0 1-4.13 2.137 53.01 53.01 0 0 1-4.13-2.137 53.52 53.52 0 0 1-3.93-2.5 53.751 53.751 0 0 1-.2-4.654m8.26 21.75c-2.109 0-4.343-2.62-5.957-7.033a45.412 45.412 0 0 0 5.958-2.13 45.36 45.36 0 0 0 5.957 2.13c-1.615 4.413-3.847 7.033-5.957 7.033m0 3c3.72 0 6.907-3.578 8.931-9.328 1.584.293 3.096.453 4.496.453 4.948 0 7.085-1.903 8.007-3.5 1.624-2.815.72-6.735-2.55-11.041a29.74 29.74 0 0 0-1.087-1.334c.38-.444.747-.89 1.087-1.335 3.27-4.305 4.175-8.226 2.55-11.04-.922-1.597-3.06-3.5-8.007-3.5-1.4 0-2.912.159-4.496.452-2.025-5.75-5.212-9.327-8.931-9.327-3.72 0-6.907 3.577-8.932 9.327-1.584-.293-3.096-.452-4.497-.452-4.947 0-7.084 1.903-8.007 3.5-1.855 3.216-.36 7.755 3.591 12.375-3.95 4.62-5.447 9.158-3.59 12.375.922 1.597 3.06 3.5 8.006 3.5 1.401 0 2.913-.16 4.496-.453 2.025 5.75 5.213 9.328 8.933 9.328M323.331 327.856l-4.94-20.308 1.82-1.419 34.17-26.629h.001l1.311-1.024 18.488 9.752-50.85 39.628zm-24.533-45.494c-.5-.643-.77-1.434-.738-2.172.024-.569.23-1.05.568-1.394a23.617 23.617 0 0 0 3.937 7.532 23.67 23.67 0 0 0 8.405 6.802 23.536 23.536 0 0 0 10.252 2.331c4.452 0 8.691-1.24 12.4-3.586l-15.258 11.89c-.402.312-.856.378-1.169.378-.877 0-1.81-.499-2.436-1.3l-15.96-20.48zm3.347-18.486c.01.614.043 1.241.111 1.885.186 1.78.607 3.601 1.215 5.424l-2.842 2.214a20.622 20.622 0 0 1 1.516-9.523zm25.294-11.37l-2.846 2.217c-2.234-1.43-4.535-2.47-6.802-3.068a20.569 20.569 0 0 1 3.04-.236c2.286 0 4.511.378 6.608 1.086zm-10.005 36.635c2.242 1.44 4.553 2.487 6.83 3.086-1 .15-2.014.234-3.042.234-2.299 0-4.536-.379-6.643-1.095l2.855-2.225zm-12.81-15.014a35.09 35.09 0 0 0 3.476 5.987l-4.03 3.14a20.549 20.549 0 0 1-2.877-6.453l3.431-2.674zm14.2-14.908c-2.206-2.13-4.385-3.919-6.33-5.079.343-.035.686-.073 1.05-.073 2.67 0 5.62.953 8.51 2.637l-3.23 2.515zm13.297 2.175a35.27 35.27 0 0 0-4.959-4.83l3.441-2.684a20.635 20.635 0 0 1 5.55 4.372l-4.032 3.142zm5.31 8.36a35.19 35.19 0 0 0-3.476-5.987l4.028-3.14a20.574 20.574 0 0 1 2.876 6.456l-3.429 2.671zm-14.222 14.886c2.213 2.141 4.4 3.938 6.352 5.102-.343.035-.686.073-1.05.073-2.679 0-5.64-.958-8.538-2.652l3.236-2.523zm-6.644-7.32a87.32 87.32 0 0 0 4.52 5.173l-3.742 2.916a31.9 31.9 0 0 1-5.043-4.765l4.265-3.325zm-5.763-8.007a85.88 85.88 0 0 0 3.922 5.64l-4.259 3.318c-1.39-1.954-2.538-3.989-3.405-6.043l3.742-2.915zm14.687-2.75a86.627 86.627 0 0 0-4.518-5.175l3.74-2.915a31.944 31.944 0 0 1 5.043 4.765l-4.265 3.324zm5.76 8.01a89.862 89.862 0 0 0-3.915-5.646l4.255-3.316c1.39 1.953 2.538 3.99 3.404 6.043l-3.745 2.92zm-.823 4.443c2.817 4.99 3.756 8.373 3.297 9.13l-.02.018a.465.465 0 0 1-.118.01c-1.21 0-4.147-1.746-7.99-5.392l4.831-3.766zm-5.462-8.242a81.726 81.726 0 0 1 3.914 5.645l-5.424 4.227a80.714 80.714 0 0 1-4.52-5.173l6.03-4.699zm-6.363-7.539a81.267 81.267 0 0 1 4.52 5.172l-6.03 4.7a81.378 81.378 0 0 1-3.914-5.645l5.424-4.227zm18.213 15.2c.246 2.334.026 4.4-.599 6.122-.664-2.243-1.909-4.824-3.4-7.403l3.236-2.522c.37 1.283.633 2.556.763 3.803zm-28.483-22.698c.008-.006.014-.014.021-.02a.48.48 0 0 1 .117-.009c1.21 0 4.135 1.738 7.97 5.37l-4.826 3.76c-2.806-4.974-3.74-8.344-3.282-9.1zm31.578 24.267c-.01-.613-.043-1.24-.11-1.882-.189-1.789-.613-3.622-1.225-5.455l2.846-2.218a20.616 20.616 0 0 1-1.51 9.555zm-34.67-14.556c-.245-2.332-.025-4.397.598-6.118.294.97.706 2.046 1.243 3.231a49.155 49.155 0 0 0 2.146 4.14l-3.233 2.518a22.202 22.202 0 0 1-.754-3.77zm.661 20.182l4.033-3.142a35.215 35.215 0 0 0 4.96 4.831l-3.444 2.683a20.67 20.67 0 0 1-5.549-4.372zm28.226-34c.878 0 1.812.498 2.437 1.3l15.96 20.481c.982 1.258.988 2.963.014 3.722l-15.182 11.831c5.827-5.598 8.176-13.71 6.702-21.352a1.5 1.5 0 0 0-.089-.456 23.578 23.578 0 0 0-4.482-9.6 23.773 23.773 0 0 0-6.334-5.669c.35-.2.711-.257.974-.257zm44.301 36.222a1.5 1.5 0 0 0-.794-1.194l-21.395-11.286a6.334 6.334 0 0 0-1.348-3.805l-15.96-20.48c-1.199-1.539-2.995-2.457-4.804-2.457-1.122 0-2.164.351-3.014 1.013l-.909.708a23.58 23.58 0 0 0-9.372-1.932 23.062 23.062 0 0 0-14.304 4.916c-6.95 5.415-9.979 14.031-8.662 22.218l-.923.72c-1.129.88-1.815 2.261-1.88 3.79-.06 1.46.424 2.931 1.37 4.143l15.961 20.48a6.473 6.473 0 0 0 2.832 2.094c-.022.177-.024.356.02.535l5.72 23.505a1.5 1.5 0 0 0 2.38.83l54.51-42.482c.402-.313.618-.808.572-1.316z"/>
        <path fill="#FFF" d="M330.422 307.572a1.5 1.5 0 0 0-1.845-2.366l-2.458 1.915a1.5 1.5 0 1 0 1.845 2.366l2.458-1.915zM338.955 299.02a1.5 1.5 0 0 0-2.105-.261l-2.46 1.916a1.5 1.5 0 1 0 1.845 2.366l2.46-1.916a1.498 1.498 0 0 0 .26-2.106M347.227 292.573a1.5 1.5 0 0 0-2.105-.26l-2.46 1.916a1.5 1.5 0 1 0 1.844 2.366l2.46-1.917a1.5 1.5 0 0 0 .26-2.105M353.393 285.867l-2.458 1.915a1.502 1.502 0 0 0 .923 2.684 1.5 1.5 0 0 0 .92-.317l2.459-1.916a1.5 1.5 0 0 0-1.844-2.366M331.297 312.249l-2.837 2.211a1.5 1.5 0 0 0 1.844 2.366l2.837-2.211a1.5 1.5 0 0 0-1.844-2.366M340.844 304.808l-2.84 2.214a1.501 1.501 0 0 0 .924 2.682c.322 0 .647-.103.92-.317l2.84-2.213a1.499 1.499 0 0 0 .26-2.104 1.498 1.498 0 0 0-2.104-.262M350.392 297.368l-2.84 2.212a1.5 1.5 0 1 0 1.845 2.366l2.839-2.212a1.5 1.5 0 1 0-1.844-2.366M358.022 294.823a1.5 1.5 0 0 0 .921-.317l2.838-2.21a1.5 1.5 0 0 0-1.844-2.367l-2.838 2.21a1.502 1.502 0 0 0 .923 2.684M315.8 53.576c.52-.1.86-.589.764-1.093-.097-.504-.596-.83-1.115-.732a.942.942 0 0 0-.761 1.093.94.94 0 0 0 1.112.732"/>
        <path fill="#FFF" d="M276.207 34.84l11.188-2.152 1.956 10.163-.991.19a1.5 1.5 0 0 0 .567 2.947l.991-.191 2.86 14.869c.517 2.682-1.325 5.299-4.105 5.834l-1.105.213a5.348 5.348 0 0 1-.999.095c-2.44 0-4.534-1.677-4.978-3.99l-2.862-14.868 1.19-.23a1.5 1.5 0 0 0-.566-2.945l-1.19.229-1.956-10.163zm26.198-5.04l11.189-2.153 1.955 10.163-1.19.229a1.502 1.502 0 1 0 .568 2.947l1.189-.23 2.861 14.87c.247 1.284-.041 2.599-.809 3.7a5.19 5.19 0 0 1-3.297 2.133l-1.105.213c-.33.063-.666.095-.998.095-2.441 0-4.535-1.677-4.979-3.99l-2.861-14.868.991-.191a1.5 1.5 0 0 0-.566-2.946l-.993.19-1.955-10.162zm-28.381 16a1.5 1.5 0 0 0 .567 2.946l1.192-.23 2.862 14.869c.715 3.722 4.048 6.423 7.923 6.423h.001a8.34 8.34 0 0 0 1.566-.15l1.104-.212c4.405-.847 7.314-5.041 6.486-9.347l-2.861-14.87 3.085-.592 5.697 29.607-12.19 2.346a1.499 1.499 0 1 0 .566 2.946l27.328-5.258a1.502 1.502 0 0 0-.567-2.947l-12.19 2.346-5.698-29.607 3.086-.594 2.862 14.869c.716 3.72 4.049 6.422 7.925 6.422.522 0 1.048-.05 1.565-.15l1.105-.212a8.178 8.178 0 0 0 5.19-3.361c1.236-1.773 1.696-3.9 1.295-5.985l-2.862-14.87 1.193-.23a1.5 1.5 0 1 0-.568-2.945l-1.191.229-2.522-13.11-17.08 3.288 2.522 13.109-3.086.594-2.239-11.636a1.501 1.501 0 0 0-2.946.566l2.239 11.637-3.086.593-2.523-13.11-17.08 3.288 2.523 13.108-1.193.23z"/>
        <path fill="#FFF" d="M285.54 61.291c.518-.1.86-.588.762-1.092a.943.943 0 0 0-1.115-.732.941.941 0 0 0-.76 1.093.942.942 0 0 0 1.112.731M288.184 63.231a.942.942 0 0 0 1.113.732c.519-.1.86-.589.764-1.093a.943.943 0 0 0-1.114-.732.942.942 0 0 0-.763 1.093M310.309 58.027a.943.943 0 0 0 1.114.732.942.942 0 0 0 .762-1.093.942.942 0 0 0-1.113-.732c-.518.1-.86.59-.763 1.093M310.188 52.343a.942.942 0 0 0 .762-1.092.943.943 0 0 0-1.113-.732.943.943 0 0 0-.762 1.093.942.942 0 0 0 1.113.731M313.482 46.59c.52-.1.86-.59.763-1.094a.943.943 0 0 0-1.115-.732.941.941 0 0 0-.76 1.093.94.94 0 0 0 1.112.732M289.114 55.453a.944.944 0 0 0 .763-1.093.943.943 0 0 0-1.114-.732.941.941 0 0 0-.76 1.093c.095.503.593.83 1.111.732M282.871 52.48a.942.942 0 0 0 .762-1.093.942.942 0 0 0-1.114-.733.941.941 0 0 0-.76 1.093.94.94 0 0 0 1.112.733M114.897 348.547c-.426.56-.828 1.088-1.068 1.604-.241.518-.385 1.167-.538 1.854-.117.524-.312 1.4-.462 1.62-.195.21-1.01.59-1.497.818-.636.297-1.237.578-1.691.924-.452.346-.879.852-1.332 1.388-.347.409-.928 1.096-1.165 1.22-.018.007-.186.06-.735.06-.315 0-.647-.014-.971-.03-.772-.034-1.449-.05-1.926.033-.561.096-1.176.345-1.827.609-.492.2-1.313.533-1.608.539-.291-.048-1.088-.514-1.517-.767-.604-.353-1.174-.687-1.718-.865-.541-.175-1.2-.24-1.898-.31-.5-.048-1.43-.14-1.669-.264-.232-.167-.727-.961-.993-1.387-.371-.596-.722-1.158-1.121-1.567-.398-.408-.952-.771-1.538-1.156-.449-.295-1.2-.79-1.352-1.007-.128-.256-.195-1.154-.235-1.691-.053-.7-.102-1.362-.266-1.91-.164-.544-.484-1.124-.824-1.738-.26-.47-.696-1.257-.729-1.522.007-.285.363-1.11.576-1.601.28-.646.544-1.256.654-1.816.11-.56.095-1.224.079-1.927-.013-.536-.033-1.432.059-1.68.131-.228.78-.744 1.168-1.053.611-.486 1.187-.945 1.566-1.477.278-.392.534-.901.805-1.442.249-.497.712-1.422.946-1.62.262-.18 1.273-.385 1.817-.494.593-.12 1.154-.234 1.609-.4.608-.223 1.204-.661 1.835-1.124.399-.293 1.066-.782 1.325-.845.351 0 1.063.21 1.636.38.672.2 1.307.388 1.876.43.539.038 1.219-.053 1.922-.154.52-.075 1.058-.153 1.45-.153.162 0 .238.013.23.012.268.11.938.76 1.298 1.112.502.487.975.947 1.46 1.25.484.299 1.109.52 1.771.753.473.167 1.355.479 1.556.657.185.217.463 1.07.63 1.58.219.669.425 1.3.714 1.792.29.49.741.979 1.22 1.496.365.393.975 1.052 1.07 1.3.063.28-.087 1.166-.176 1.695-.118.692-.228 1.347-.201 1.918.029.566.201 1.206.384 1.88.131.488.376 1.392.343 1.66-.074.275-.617.99-.942 1.416zM85.531 303.25l10.261 17.985a1.5 1.5 0 0 0 2.779-.474l3.701-20.373 4.203-.72-4.988 27.458a21.539 21.539 0 0 1-.342-.1c-1.037-.308-2.171-.608-3.014-.462-.897.153-1.75.779-2.575 1.384-.116.085-.251.184-.388.282l-13.84-24.261 4.203-.72zm32.577 40.194c-.011-.246.085-.814.163-1.272.178-1.056.363-2.148.095-3.043-.267-.895-1.019-1.706-1.746-2.491-.316-.342-.71-.767-.835-.98-.125-.211-.305-.76-.449-1.202-.332-1.017-.676-2.068-1.328-2.735-.653-.67-1.699-1.04-2.71-1.397-.437-.155-.981-.346-1.185-.472-.209-.131-.621-.533-.953-.855-.769-.748-1.565-1.52-2.456-1.811-.574-.185-1.357-.17-2.162-.086l5.268-29.002a1.501 1.501 0 0 0-1.729-1.747l-7.35 1.256c-.621.107-1.11.59-1.223 1.21l-3.153 17.352-8.739-15.318a1.496 1.496 0 0 0-1.555-.736l-7.351 1.257a1.499 1.499 0 0 0-1.049 2.222l14.594 25.585c-.755.18-1.472.414-2.003.819-.772.592-1.3 1.645-1.811 2.662-.208.416-.424.848-.567 1.05-.132.184-.648.595-.99.867-.801.638-1.631 1.298-2.013 2.123-.394.847-.369 1.954-.345 3.026.011.464.024 1.04-.023 1.28-.047.243-.277.774-.462 1.202-.426.982-.866 1.997-.82 2.93.045.932.582 1.9 1.1 2.838.225.406.505.91.575 1.145.07.236.113.812.148 1.275.08 1.067.163 2.17.635 2.976.474.807 1.401 1.415 2.297 2.004.387.255.869.57 1.039.745.171.175.476.664.721 1.058.567.909 1.154 1.85 1.947 2.342.795.496 1.899.604 2.967.709.461.045 1.035.1 1.264.175.233.077.73.368 1.129.602.926.543 1.884 1.103 2.817 1.17l.208.008c.873 0 1.825-.385 2.744-.76.43-.173.965-.39 1.206-.431.314-.054.799-.015 1.281.007.37.018.75.034 1.11.034.844 0 1.438-.093 1.924-.306.857-.373 1.574-1.22 2.266-2.037.299-.355.672-.795.864-.942.195-.15.718-.393 1.138-.59.971-.453 1.976-.922 2.563-1.653.582-.728.822-1.807 1.055-2.85.101-.454.227-1.02.331-1.243.103-.222.453-.68.734-1.051.649-.851 1.32-1.733 1.498-2.65.179-.917-.11-1.988-.39-3.024-.121-.448-.271-1.003-.284-1.245z"/>
        <path fill="#FFF" d="M107.198 348.356a7.394 7.394 0 0 1-4.822 3.036 7.424 7.424 0 0 1-8.594-6.083 7.404 7.404 0 0 1 1.263-5.557 7.395 7.395 0 0 1 4.822-3.036 7.58 7.58 0 0 1 1.265-.108 7.423 7.423 0 0 1 7.33 6.192 7.395 7.395 0 0 1-1.264 5.555m-6.066-14.747c-.59 0-1.185.051-1.77.15a10.382 10.382 0 0 0-6.766 4.262 10.379 10.379 0 0 0-1.77 7.796 10.416 10.416 0 0 0 10.285 8.686c.59 0 1.185-.052 1.771-.151a10.378 10.378 0 0 0 6.764-4.262 10.374 10.374 0 0 0 1.772-7.794 10.416 10.416 0 0 0-10.286-8.687M358.268 115.587c-.618 5.756-3.453 20.869-16.428 31.036l-5.54-3.558a78.495 78.495 0 0 1 4.65-9.43 1.51 1.51 0 0 0 .322-.553c3.785-6.41 9.506-13.894 16.996-17.495zm-7.394 28.129l-5.62 8.208-.816-3.537a43.486 43.486 0 0 0 6.059-6.055l.377 1.384zm-14.71-9.436l.974-.043a77.377 77.377 0 0 0-3.66 7.792l-3.647.3 6.333-8.05zm-.82-2.967a1.501 1.501 0 0 0-1.112.57l-8.888 11.296a1.5 1.5 0 0 0 1.302 2.423l4.8-.395-11.611 9.017a1.5 1.5 0 1 0 1.84 2.369l11.722-9.103a1.5 1.5 0 0 0 .265-2.104 1.52 1.52 0 0 0-.37-.331l.493-.04 7.319 4.7c.188.122.398.182.61.21l1.386 6.003a1.504 1.504 0 0 0 1.462 1.163 1.5 1.5 0 0 0 1.237-.652l7.943-11.601a1.5 1.5 0 0 0 .21-1.241l-1.137-4.174c-.011-.038-.028-.071-.042-.108 8.409-12.19 8.658-25.328 8.665-26.041a1.502 1.502 0 0 0-2.01-1.424c-9.293 3.348-16.148 11.957-20.542 19.307l-3.541.156z"/>
        <path fill="#FFF" d="M341.176 137.772a1.5 1.5 0 1 0 2.55 1.58l7.544-12.168a1.5 1.5 0 0 0-2.55-1.581l-7.544 12.169zM340.524 150.236a1.504 1.504 0 0 0-1.896.953l-4.536 13.712a1.502 1.502 0 0 0 1.425 1.972c.63 0 1.215-.4 1.424-1.03l4.536-13.71a1.5 1.5 0 0 0-.953-1.897M333.268 154.634l-4.72 10.211a1.502 1.502 0 0 0 1.363 2.13c.566 0 1.108-.323 1.362-.87l4.719-10.212a1.5 1.5 0 0 0-2.724-1.259M332.198 149.536l-6.492 7.054a1.497 1.497 0 0 0 1.102 2.515c.406 0 .81-.163 1.104-.484l6.493-7.054a1.498 1.498 0 0 0-.089-2.119 1.498 1.498 0 0 0-2.118.088M81.228 264.053c2.182-.82 6.361-5.154 12.999-12.16 5.19-5.477 11.073-11.684 14.04-13.5 1.975-1.21 4.94-1.565 6.347-.76.244.14.419.314.543.52.006.015.007.03.013.045l.168.416c.028.142.04.298.037.47-.016.865-.28 1.496-.831 1.989-1.369 1.222-4.15 1.255-5.104 1.169a1.5 1.5 0 0 0-1.499 2.141l10.958 22.837c-.804.704-2.108 1.858-3.667 3.28a8.318 8.318 0 0 0-7.837-3.57 8.298 8.298 0 0 0-5.558 3.06c-.102.129-.192.264-.286.396l-5.549-3.134a1.5 1.5 0 0 0-2.236 1.251l-.088 2.35-3.115 1.422a1.5 1.5 0 0 0 .254 2.819l4.303 1.087-3.871 1.609a1.502 1.502 0 0 0-.074 2.738l2.627 1.26-.319 3.264a1.5 1.5 0 0 0 2.447 1.304l6.551-5.402c.375.37.784.7 1.223.993a61.342 61.342 0 0 0-2.156 2.543c-4.366 5.479-8.66 4.27-9.837 3.792L77.144 264.58a8.828 8.828 0 0 0 4.084-.527m45.524 5.296c-.715.67-1.967.923-2.869 1l-1.593-3.191a1.533 1.533 0 0 0-.27-.368l-10.359-21.59c1.536-.157 3.46-.626 4.873-1.882.185-.165.333-.356.49-.54l10.293 25.42c-.057.475-.239.846-.565 1.15m-27.283 4.838l-3.774-.953.07-.034c.517-.234.856-.741.877-1.308l.03-.815 3.611 2.04c-.083.328-.145.66-.186.997l-.387.16a1.383 1.383 0 0 0-.241-.087m-3.423 5.353l-.551-.264 4.827-2.007c.114.422.26.829.436 1.22l-3.936 3.245.068-.696a1.5 1.5 0 0 0-.844-1.498m16.456-1.19a5.312 5.312 0 0 1-3.561 1.96c-.21.025-.418.037-.624.037h-.001c-2.691 0-4.95-1.99-5.255-4.63a5.158 5.158 0 0 1 1.116-3.847 5.323 5.323 0 0 1 3.561-1.96 5.51 5.51 0 0 1 .625-.035c2.692 0 4.951 1.99 5.256 4.627a5.163 5.163 0 0 1-1.117 3.849m-22.568 12.408c.035.02 1.754.952 4.278.952 2.676 0 6.255-1.05 9.683-5.351a64.265 64.265 0 0 1 2.743-3.187c.544.11 1.104.174 1.678.174h.001c.319 0 .641-.02.967-.056a8.3 8.3 0 0 0 5.558-3.062 8.14 8.14 0 0 0 1.635-6.803c.004-.005.01-.005.014-.01a252.498 252.498 0 0 1 3.841-3.461l1.293 2.587c.242.484.726.8 1.266.828.057.003.18.008.355.008 1.011 0 3.761-.164 5.547-1.83.981-.914 1.514-2.148 1.541-3.568a1.496 1.496 0 0 0-.109-.592l-12.059-29.782c-.323-1.088-1.021-1.98-2.062-2.576-2.714-1.553-6.871-.745-9.403.805-3.306 2.024-9.074 8.11-14.652 13.996-4.558 4.81-10.23 10.796-11.876 11.414-3.092 1.162-5.546-.661-5.641-.732a1.5 1.5 0 1 0-2.2 1.968l17.058 27.756c.133.216.32.397.544.522M325.558 192.736l-20.478 20.817c-1.428-2.858.442-6.068.532-6.22.147-.242.212-.511.21-.776l18.696-18.917c-.078 1.599.155 3.375 1.04 5.096zm-54.788 4.056c.072-1.617 1.01-2.988 1.67-3.538l30.18 13.349c-.587 1.26-1.485 3.803-.87 6.509-6.582-2.84-20.546-8.863-27.361-11.772-2.49-1.064-3.707-2.594-3.62-4.548zm8.928-9.533c2.176 1.45 4.547 2.272 6.913 2.272a9.446 9.446 0 0 0 3.55-.681c3.19-1.286 5.459-4.212 6.386-8.238.567-2.458.58-5.155.078-7.876l3.977-3.412 27.83 10.088-24.295 24.582-28.996-12.825 4.557-3.91zm-1.313-27.615a6.485 6.485 0 0 1 2.428-.462c4.489 0 9.303 4.163 11.706 10.125 1.459 3.617 1.85 7.393 1.104 10.632-.7 3.043-2.33 5.219-4.585 6.129a6.457 6.457 0 0 1-2.427.463c-4.49 0-9.301-4.163-11.704-10.124-2.938-7.285-1.377-14.805 3.478-16.763zm53.272 17.746L300.8 166.205a1.498 1.498 0 0 0-1.487.272l-3.531 3.029c-.15-.442-.304-.883-.481-1.321-2.894-7.18-8.717-12.003-14.488-12.003-.084 0-.165.01-.248.012 2.208-.905 6.5-.662 8.472-.197 2.195.517 3.978 1.762 5.866 3.079.85.595 1.733 1.21 2.678 1.777 4.855 2.913 11.52 4.669 17.609 4.669.308 0 .616-.005.92-.014a1.5 1.5 0 0 0 1.456-1.544 1.485 1.485 0 0 0-1.544-1.455c-5.786.177-12.262-1.447-16.898-4.228-.856-.514-1.694-1.1-2.504-1.665-2.037-1.421-4.142-2.89-6.895-3.54-1.621-.381-8.844-1.345-11.96 1.33-.897.772-1.391 1.773-1.456 2.92-5.651 3.083-7.557 11.84-4.186 20.203 1.259 3.12 3.072 5.795 5.192 7.822l-5.8 4.975c-1.77.83-3.611 3.406-3.742 6.332-.084 1.875.51 5.335 5.437 7.44 9.046 3.863 30.718 13.222 30.936 13.316a1.498 1.498 0 0 0 1.664-.325l24.084-24.482c.58-.59.572-1.54-.018-2.121a1.487 1.487 0 0 0-2.024-.048c-1.058-3.293.716-6.805.76-6.891.015-.028.023-.058.036-.086l3.563-3.606a1.502 1.502 0 0 0-.554-2.465z"/>
        <path fill="#FFF" d="M282.198 170.602a1.5 1.5 0 0 0 1.392-2.06l-2.26-5.61a1.5 1.5 0 0 0-2.782 1.121l2.258 5.61c.237.584.8.94 1.392.94M165.386 68.628a219.398 219.398 0 0 0-9.04 9.102l-13.554-12.358 8.635-9.47 13.959 12.726zm-4.438-23.55l9.28 8.462-2.065 2.267-8.172-7.45.957-3.279zm-10.728 7.693l-14.401 15.797a1.5 1.5 0 1 0 2.216 2.021l2.736-3 13.543 12.348a201.09 201.09 0 0 0-2.725 3.051 1.5 1.5 0 1 0 2.258 1.974 212.997 212.997 0 0 1 14.427-14.938c.177-.082.342-.199.483-.353.062-.068.089-.15.136-.227 10.777-10.055 18.984-15.682 19.1-15.76a1.5 1.5 0 0 0-1.685-2.483c-.117.08-8.118 5.56-18.727 15.368l-13.306-12.13c.02-.044.046-.083.062-.129l3.862-10.525-1.35 4.63a1.5 1.5 0 0 0 .429 1.528l9.972 9.092c.277.252.637.391 1.01.391h.07a1.503 1.503 0 0 0 1.039-.489l4.088-4.484a1.5 1.5 0 0 0-.098-2.119l-12.145-11.073a.958.958 0 0 0-.047-.043l-2.262-2.063a1.495 1.495 0 0 0-1.368-.348 1.497 1.497 0 0 0-1.051.94l-4.634 12.63a1.505 1.505 0 0 0-1.632.395zM178.566 133.968l-3.484 21.154c-.141.854-.636 1.607-1.392 2.118a3.717 3.717 0 0 1-2.697.576l-14.553-2.397 1.24-7.538 8.156-8.728a3.113 3.113 0 0 0-.15-4.395l-.384-.36c-1.204-1.122-3.274-1.049-4.391.151l-6.155 6.586a6.225 6.225 0 0 0-2.01-.774 4.722 4.722 0 0 0 2.813-3.58 4.723 4.723 0 0 0-.826-3.54 4.721 4.721 0 0 0-3.087-1.917 4.74 4.74 0 0 0-5.455 3.913c-.291 1.767.453 3.453 1.769 4.49-1.972.063-3.445.635-4.33 1.674l-8.575 9.177a3.059 3.059 0 0 0-.662 1.118 3.662 3.662 0 0 1-1.595-1.19c-.552-.728-.78-1.599-.638-2.454l3.484-21.154c.298-1.807 2.13-3.015 4.089-2.693l35.824 5.9c1.957.323 3.306 2.055 3.009 3.863zm-29.415 1.756a1.74 1.74 0 0 1 2.008-1.44 1.748 1.748 0 0 1 1.44 2.009 1.742 1.742 0 0 1-2.008 1.44 1.75 1.75 0 0 1-1.44-2.009zm1.84 34.312c-.008.054-.063.091-.107.091l-1.494-.245c-.054-.009-.096-.07-.088-.124l2.169-13.164-6.204-1.025-2.17 13.167c-.008.053-.06.07-.123.09l-1.476-.244c-.051-.009-.098-.073-.09-.124l3.839-23.307-7.455 7.981 1.096 1.023-1.248-1.018-.386-.36a.115.115 0 0 1-.006-.153l8.619-9.225c.377-.442 1.25-.685 2.457-.685 1.748 0 3.513.507 3.53.513l.178.04a3.298 3.298 0 0 1 1.817.95l1.097 1.11 8.157-8.73.153-.005.384.358a.113.113 0 0 1 .004.154l-8.808 9.428-3.844 23.504zm-18.307-43.625l-3.484 21.154c-.277 1.676.153 3.365 1.209 4.755a6.703 6.703 0 0 0 4.272 2.556l.518.085.007.008.385.36c1.202 1.122 3.269 1.053 4.393-.15l.694-.742-2.23 13.533a3.083 3.083 0 0 0 .544 2.315 3.085 3.085 0 0 0 2.018 1.257l1.477.243a3.102 3.102 0 0 0 3.57-2.56l1.682-10.21.285.047-1.682 10.21a3.112 3.112 0 0 0 2.56 3.57l1.478.243a3.099 3.099 0 0 0 3.572-2.561l2-12.145 14.553 2.397c.374.062.75.092 1.122.092a6.665 6.665 0 0 0 3.744-1.143c1.446-.978 2.394-2.439 2.67-4.116l3.485-21.154c.566-3.439-1.893-6.718-5.481-7.31l-35.825-5.9c-3.59-.59-6.97 1.725-7.536 5.166z"/>
        <path fill="#FFF" d="M144.698 129.112l24.583 4.05a1.5 1.5 0 0 0 .487-2.96l-24.583-4.05a1.5 1.5 0 0 0-.487 2.96M223.751 175.345a2.382 2.382 0 0 1-.465 3.333c-1.02.773-2.567.55-3.334-.465a2.383 2.383 0 0 1 1.897-3.814c.755 0 1.449.345 1.902.946zm-3.119 22.772c-1.022.772-2.566.55-3.332-.465a2.382 2.382 0 0 1 1.894-3.814c.755 0 1.45.345 1.904.946a2.383 2.383 0 0 1-.466 3.333zm-29.049 21.058a2.36 2.36 0 0 1-.925 1.57c-1.02.77-2.565.55-3.331-.464a2.382 2.382 0 0 1 1.896-3.815c.755 0 1.448.345 1.902.946.383.508.545 1.133.458 1.763zm-26.834-28.8a2.383 2.383 0 0 1 1.897-3.814c.754 0 1.447.345 1.901.946a2.383 2.383 0 0 1-.466 3.333c-1.021.772-2.566.55-3.332-.465zm3.119-22.773c.416-.314.911-.48 1.43-.48.755 0 1.448.345 1.902.946a2.36 2.36 0 0 1 .458 1.763 2.36 2.36 0 0 1-.923 1.57c-1.02.772-2.566.55-3.333-.466a2.383 2.383 0 0 1 .466-3.333zm29.973-22.628a2.352 2.352 0 0 1 1.43-.481 2.382 2.382 0 0 1 1.438 4.279c-1.021.773-2.567.552-3.334-.465a2.381 2.381 0 0 1 .466-3.333zm19.038 33.798l-5.715 4.315-10.248-13.575a5.332 5.332 0 0 0 1.032-2.456 5.366 5.366 0 0 0-3.122-5.647l1.258-9.22a5.304 5.304 0 0 0 1.421-.435l16.261 21.538a5.376 5.376 0 0 0-.887 5.48zm-17.902-12.131a2.364 2.364 0 0 1-.923 1.57c-1.023.772-2.566.55-3.332-.465a2.382 2.382 0 0 1 .465-3.333 2.36 2.36 0 0 1 1.431-.48c.755 0 1.447.345 1.901.946.383.507.545 1.133.458 1.762zm-3.804 28.518a5.334 5.334 0 0 0-3.297-1.132c-.54 0-1.065.089-1.569.243l-10.248-13.574 13.347-10.077a5.334 5.334 0 0 0 3.217 1.073c.662 0 1.302-.132 1.906-.362l10.241 13.564-13.597 10.265zm-5.193 5.682a2.383 2.383 0 0 1 1.896-3.814c.755 0 1.448.345 1.902.946.384.508.546 1.135.458 1.764a2.365 2.365 0 0 1-.922 1.57c-1.02.772-2.566.55-3.334-.466zm6.158-49.602c.304.219.629.405.972.555l-1.255 9.2a5.327 5.327 0 0 0-2.476 1.025c-1.948 1.472-2.587 4.016-1.765 6.193L178.251 178.3l-4.444-5.886c.421-.65.712-1.38.822-2.17a5.318 5.318 0 0 0-.286-2.552l21.795-16.454zm-24.605 23.143l4.323 5.727-5.993 4.525a5.29 5.29 0 0 0-1.031-.606l1.258-9.21a5.304 5.304 0 0 0 1.443-.436zm15.783 39.446l-16.374-21.69a5.368 5.368 0 0 0 .712-5.097l6.01-4.538 10.129 13.416c-1.602 1.878-1.753 4.68-.207 6.73a5.352 5.352 0 0 0 2.109 1.67l-1.257 9.21c-.387.056-.76.16-1.122.299zm5.125.71a5.286 5.286 0 0 0-1.031-.604l1.257-9.21a5.325 5.325 0 0 0 2.454-1.023 5.345 5.345 0 0 0 2.087-3.55 5.335 5.335 0 0 0-.287-2.553l13.656-10.31 4.326 5.73a5.369 5.369 0 0 0-.711 5.1l-21.751 16.42zm24.848-23.34l-4.317-5.717 5.744-4.337c.299.216.616.399.952.547l-1.258 9.21c-.386.056-.759.16-1.121.298zm-13.722-47.566a5.338 5.338 0 0 0-4.296-2.14 5.337 5.337 0 0 0-3.238 1.087c-1.977 1.493-2.61 4.09-1.732 6.287l-21.706 16.387a5.339 5.339 0 0 0-3.297-1.131 5.33 5.33 0 0 0-3.238 1.086 5.385 5.385 0 0 0-1.052 7.534 5.348 5.348 0 0 0 2.109 1.672l-1.258 9.21a5.33 5.33 0 0 0-2.453 1.024 5.386 5.386 0 0 0-1.052 7.534 5.34 5.34 0 0 0 6.202 1.777l16.374 21.689c-1.387 1.868-1.469 4.49.002 6.44a5.337 5.337 0 0 0 4.297 2.139 5.329 5.329 0 0 0 3.237-1.087c1.95-1.472 2.59-4.017 1.766-6.193l21.752-16.422a5.335 5.335 0 0 0 3.218 1.073 5.336 5.336 0 0 0 3.237-1.086 5.386 5.386 0 0 0 1.052-7.535 5.351 5.351 0 0 0-2.108-1.671l1.258-9.21a5.328 5.328 0 0 0 2.453-1.023 5.388 5.388 0 0 0 1.052-7.536 5.34 5.34 0 0 0-5.868-1.895l-16.502-21.86c1.188-1.843 1.188-4.301-.209-6.15zM73.585 364.176l-30.339 7.445a4.442 4.442 0 0 1-1.056.128c-2.034 0-3.861-1.43-4.345-3.401l-6.126-24.961c.654.113 1.409.19 2.28.19 3.054 0 7.442-.926 13.138-4.416 4.195-2.57 6.827-4.831 9.149-6.827 3.644-3.132 6.134-5.27 12.465-6.595l8.107 33.034a4.473 4.473 0 0 1-3.273 5.403zm-47.767-41.753c-1.714-.52-3.516-1.3-4.371-1.856 1.325-.785 4.938-1.836 8.555-2.446l30.447-7.467a4.437 4.437 0 0 1 1.056-.13c2.034 0 3.862 1.43 4.346 3.402l2.185 8.9c-7.028 1.498-10.006 4.053-13.706 7.234-2.236 1.92-4.77 4.099-8.761 6.544-8.352 5.118-13.198 4.03-14.66 3.482l-4.274-17.415-.817-.248zm42.946-9.212a7.455 7.455 0 0 0-9.03-5.471l-30.285 7.433c-4.714.796-10.47 2.26-11.267 4.727a2.198 2.198 0 0 0 .164 1.702c.814 1.555 3.877 2.792 5.779 3.429l10.807 44.032a7.454 7.454 0 0 0 9.029 5.47l30.339-7.445c3.998-.98 6.452-5.031 5.471-9.03L68.764 313.21z"/>
        <path fill="#FFF" d="M57.34 347.474a3.509 3.509 0 0 1-2.18 1.6 3.522 3.522 0 0 1-4.272-2.589 3.536 3.536 0 0 1 3.436-4.372 3.521 3.521 0 0 1 3.426 2.689 3.512 3.512 0 0 1-.41 2.672m2.566 1.555a6.49 6.49 0 0 0 .757-4.942 6.515 6.515 0 0 0-6.34-4.974 6.539 6.539 0 0 0-6.348 8.089 6.516 6.516 0 0 0 6.34 4.975c.524 0 1.049-.063 1.56-.188a6.494 6.494 0 0 0 4.03-2.96"/>
        <path fill="#FFF" d="M60.753 336.758a1.256 1.256 0 0 1 1.083-.61 1.26 1.26 0 0 1 1.226.964 1.263 1.263 0 0 1-.926 1.53 1.276 1.276 0 0 1-1.53-.927 1.26 1.26 0 0 1 .147-.957m1.08 4.92c.34 0 .684-.041 1.018-.123a4.239 4.239 0 0 0 2.63-1.932c.59-.974.766-2.121.494-3.226a4.253 4.253 0 0 0-5.157-3.124 4.267 4.267 0 0 0-3.125 5.157 4.254 4.254 0 0 0 4.14 3.248M63.338 357.363a1.16 1.16 0 0 1-1.387-.842 1.14 1.14 0 0 1 .134-.866 1.14 1.14 0 0 1 .983-.554 1.148 1.148 0 0 1 .27 2.262m-.27-5.262c-.333 0-.667.041-.99.12a4.12 4.12 0 0 0-2.559 1.88 4.116 4.116 0 0 0-.48 3.136 4.138 4.138 0 0 0 5.014 3.04 4.152 4.152 0 0 0 3.04-5.018 4.136 4.136 0 0 0-4.025-3.158M31.42 326.165c.119 0 .239-.015.359-.045l7.893-1.936a1.5 1.5 0 0 0-.714-2.914l-7.893 1.938a1.5 1.5 0 0 0 .356 2.957M32.946 337.166a1.501 1.501 0 0 0 1.814 1.099l7.893-1.937a1.499 1.499 0 0 0 1.099-1.814 1.497 1.497 0 0 0-1.814-1.099l-7.893 1.937a1.498 1.498 0 0 0-1.1 1.814M33.27 332.192l3.947-.968a1.499 1.499 0 0 0 1.099-1.814 1.495 1.495 0 0 0-1.815-1.099l-3.947.97a1.5 1.5 0 1 0 .715 2.912M286.59 290.87c4.509 0 8.176 3.563 8.176 7.945s-3.667 7.947-8.176 7.947c-4.51 0-8.176-3.565-8.176-7.947s3.667-7.946 8.176-7.946m-27.146 15.893c-4.51 0-8.178-3.565-8.178-7.947s3.669-7.946 8.178-7.946c4.507 0 8.175 3.564 8.175 7.946s-3.668 7.947-8.175 7.947m27.146 3c6.162 0 11.176-4.91 11.176-10.947 0-2.02-.572-3.909-1.551-5.536a1.576 1.576 0 0 0-.085-.29l-8.96-22.212-.155-.292c-.145-.208-1.471-2.037-3.821-2.288-1.698-.184-3.391.508-5.032 2.047a1.5 1.5 0 0 0 2.054 2.188c.965-.908 1.848-1.333 2.639-1.253.812.077 1.409.68 1.613.917l6.767 16.776a11.277 11.277 0 0 0-4.645-1.003 11.24 11.24 0 0 0-8.74 4.143c-3.74-2.293-7.385-1.173-9.497.223a11.235 11.235 0 0 0-8.91-4.366c-1.742 0-3.384.403-4.855 1.103l6.807-16.875c.204-.235.797-.832 1.59-.916.79-.083 1.688.335 2.662 1.251a1.503 1.503 0 0 0 2.12-.067 1.502 1.502 0 0 0-.067-2.12c-1.64-1.54-3.331-2.232-5.031-2.048-2.35.251-3.676 2.081-3.82 2.288l-9.116 22.503a1.461 1.461 0 0 0-.108.601 10.702 10.702 0 0 0-1.36 5.226c0 6.036 5.015 10.947 11.179 10.947 6.162 0 11.175-4.91 11.175-10.947 0-1.4-.28-2.735-.771-3.967 1.005-.708 3.54-2.049 6.44-.277a10.71 10.71 0 0 0-.874 4.244c0 6.036 5.013 10.947 11.176 10.947M270.278 367.411l-40.243-16.518 15.133-36.866 6.925 2.843-.816 1.988a1.5 1.5 0 0 0 2.775 1.14l.817-1.988 5.096 2.091-.816 1.99a1.502 1.502 0 0 0 1.387 2.07 1.5 1.5 0 0 0 1.388-.932l.817-1.989 5.095 2.092-.817 1.988a1.503 1.503 0 0 0 1.388 2.07 1.5 1.5 0 0 0 1.388-.93l.816-1.988 5.098 2.091-.817 1.99a1.5 1.5 0 0 0 2.776 1.137l.816-1.988 6.926 2.843-15.132 36.866zm17.658-39.07l-8.313-3.413.816-1.99a1.5 1.5 0 0 0-2.775-1.138l-.817 1.988-5.096-2.092.815-1.988a1.5 1.5 0 1 0-2.775-1.14l-.816 1.99-5.095-2.092.816-1.989a1.5 1.5 0 0 0-2.775-1.139l-.817 1.988-5.097-2.092.817-1.988a1.5 1.5 0 0 0-2.775-1.14l-.817 1.99-8.313-3.414a1.502 1.502 0 0 0-1.957.82l-16.272 39.64a1.495 1.495 0 0 0 .819 1.956l43.018 17.658a1.5 1.5 0 0 0 1.957-.819l16.271-39.64a1.5 1.5 0 0 0-.819-1.957z"/>
        <path fill="#FFF" d="M274.51 335.535l-25.091-10.299a1.503 1.503 0 0 0-1.958.82 1.502 1.502 0 0 0 .82 1.956l25.09 10.298a1.5 1.5 0 0 0 1.139-2.775M271.762 342.228L246.67 331.93a1.5 1.5 0 0 0-1.138 2.776l25.09 10.298a1.502 1.502 0 0 0 1.139-2.776M269.015 348.926l-25.092-10.3a1.504 1.504 0 0 0-1.958.818 1.503 1.503 0 0 0 .819 1.958l25.09 10.299a1.501 1.501 0 0 0 1.141-2.775M266.266 355.622l-25.092-10.3a1.501 1.501 0 0 0-1.957.818 1.502 1.502 0 0 0 .819 1.958l25.09 10.298a1.5 1.5 0 0 0 1.957-.817 1.498 1.498 0 0 0-.817-1.957M158.03 334.248l-16.79-27.931a1.5 1.5 0 0 0-1.87-.609l-24.722 10.441a1.501 1.501 0 0 0 1.167 2.764l23.524-9.935 15.48 25.751-19.242 17.189a1.5 1.5 0 0 0 1.998 2.237l20.169-18.015a1.5 1.5 0 0 0 .287-1.892M199.026 354.94l-27.943 16.798-10.549-17.548a1.499 1.499 0 1 0-2.57 1.546l4.888 8.133-11.719 7.044-3.459-5.754a1.5 1.5 0 0 0-2.571 1.546l4.232 7.04 3.97 6.601a1.497 1.497 0 0 0 2.057.513 1.5 1.5 0 0 0 .513-2.059l-3.196-5.315 11.72-7.045 4.886 8.13a1.498 1.498 0 0 0 2.058.513l29.23-17.572a1.5 1.5 0 1 0-1.547-2.57M187.451 322.543a5.044 5.044 0 0 1 2.312-3.124 5.044 5.044 0 0 1 2.606-.726c1.801 0 3.43.92 4.356 2.461a5.042 5.042 0 0 1 .576 3.843 5.038 5.038 0 0 1-2.308 3.122 5.066 5.066 0 0 1-2.61.727 5.041 5.041 0 0 1-4.358-2.461 5.04 5.04 0 0 1-.574-3.842m4.931 9.303c1.462 0 2.9-.4 4.157-1.156a8.02 8.02 0 0 0 3.673-4.968 8.029 8.029 0 0 0-.915-6.114 8.124 8.124 0 0 0-6.928-3.915c-1.46 0-2.896.399-4.152 1.155a8.025 8.025 0 0 0-3.677 4.969 8.021 8.021 0 0 0 .914 6.113 8.124 8.124 0 0 0 6.928 3.916"/>
        <path fill="#FFF" d="M143.963 358.92a1.52 1.52 0 0 1-.186-.244c-.389-.646-.236-1.504.363-2.042l17.146-15.395a1.747 1.747 0 0 1 1.413-.445c.485.063.902.33 1.145.734l6.566 10.923c.271.449.757.726 1.283.727h.002a1.5 1.5 0 0 0 1.283-.723l7.863-12.978a1.498 1.498 0 0 0-1-2.25l-8.82-1.692a1.566 1.566 0 0 1-.9-.516l-9.418-11.035a1.426 1.426 0 0 1-.139-.193c-.403-.671-.229-1.547.413-2.083.7-.585 1.813-.524 2.37.129l8.715 10.21a1.5 1.5 0 0 0 .86.5l14.77 2.83c.627.12 1.097.578 1.226 1.192.056.274.19.527.382.729 1.446 1.518 1.671 3.769.56 5.603l-10.466 17.279a5.08 5.08 0 0 1-4.323 2.43 4.77 4.77 0 0 1-2.193-.523 1.595 1.595 0 0 0-.239-.097 1.491 1.491 0 0 1-.772-.546 1.359 1.359 0 0 0-.153-.177 4.407 4.407 0 0 1-.677-.857 4.545 4.545 0 0 1-.397-.894 1.416 1.416 0 0 0-.135-.29l-7.637-12.704a1.498 1.498 0 0 0-2.287-.343l-14.245 12.786c-.679.612-1.789.59-2.373-.045m4.38 2.276l12.89-11.572 6.622 11.016c.18.499.38.93.61 1.316.293.487.65.945 1.06 1.362a4.47 4.47 0 0 0 2.101 1.498 7.87 7.87 0 0 0 3.444.794h.001c2.8 0 5.44-1.484 6.89-3.876l10.465-17.278c1.723-2.843 1.43-6.455-.683-8.926a4.53 4.53 0 0 0-3.487-3.1l-14.254-2.731-8.373-9.808a4.589 4.589 0 0 0-3.505-1.603 4.798 4.798 0 0 0-3.069 1.117c-1.786 1.49-2.233 3.985-1.062 5.93.128.216.277.424.436.607l9.407 11.022a4.57 4.57 0 0 0 2.623 1.519l6.7 1.284-5.459 9.007-5.285-8.792a4.537 4.537 0 0 0-3.328-2.163 4.774 4.774 0 0 0-3.807 1.189L142.137 354.4c-1.668 1.497-2.06 3.945-.933 5.819.152.254.338.5.551.733a4.617 4.617 0 0 0 3.391 1.475 4.77 4.77 0 0 0 3.196-1.231"/>
        <path fill="#FFF" d="M161.517 299.568l-11.288 18.51a1.497 1.497 0 0 0-.005 1.553l7.689 12.791a1.5 1.5 0 0 0 2.572-1.545l-7.222-12.013 10.816-17.734a1.5 1.5 0 0 0-2.562-1.562M316.006 368.893l-17.094-9.658 1.073-1.901 17.093 9.659-1.072 1.9zm-17.156-15.647l-4.026 7.124 22.317 12.61 4.025-7.123-22.316-12.611zM305.965 346.752l17.093 9.658-1.073 1.902-17.094-9.659 1.074-1.901zm-5.162 3.037l22.317 12.61 4.027-7.125-22.317-12.61-4.027 7.125zM327.964 347.73l-17.094-9.659 1.074-1.9 17.093 9.66-1.073 1.9zm5.16-3.036l-22.315-12.61-4.027 7.123 22.318 12.611 4.025-7.123zM338.474 345.059a1.501 1.501 0 0 0-.567-2.044 1.504 1.504 0 0 0-2.045.568l-18.365 32.5a1.5 1.5 0 0 0 2.613 1.476l18.364-32.5zM344.79 342.042a1.503 1.503 0 0 0-2.046.568l-22.634 40.055a1.5 1.5 0 0 0 2.613 1.476l22.633-40.055a1.498 1.498 0 0 0-.567-2.044M290.977 359.405l.404-19.64 16.617-10.479-17.021 30.12zm22.289-35.649a1.498 1.498 0 0 0-1.835-.183l-22.333 14.086a1.5 1.5 0 0 0-.7 1.238l-.542 26.397a1.497 1.497 0 0 0 1.499 1.53c.53 0 1.035-.282 1.306-.762l22.877-40.483a1.5 1.5 0 0 0-.272-1.823zM201.915 62.04c5.652 2.752 8.041 10.125 5.68 17.532a1.501 1.501 0 0 0-.051.697c.051.311.113.597.188.864a1.049 1.049 0 0 0-.098-.01 1.507 1.507 0 0 0-.474-.389c-3.944-2.063-6.495-3.694-6.892-4.18-.027-.04-.039-.079-.054-.114-.141-.319-.472-1.067-1.513-1.355a2.1 2.1 0 0 0-.272-.057 1.534 1.534 0 0 0-.533-.56c-.686-.436-1.406-.19-1.681-.096a1.215 1.215 0 0 0-.055.02l.005-.041c.097-.638 1.096-2.531 1.693-3.663 1.149-2.18 1.496-2.837 1.227-3.66a1.618 1.618 0 0 0-.798-.92c-.883-.43-1.187-.407-5.586 2.868l-.388.29.088-.18.206-.421a1.5 1.5 0 0 0-2.665-1.379l-.023.046c-.227.438-1.018 1.058-1.404 1.36l-.326.259c-.537.428-1.205.962-1.712 1.173-.25.104-.569.183-.95.237l-1.6-.78a1.497 1.497 0 0 0-.597-.15 1.467 1.467 0 0 0-.146-.15 7.58 7.58 0 0 0 .905-.427c.208-.114.386-.275.519-.472 4.373-6.428 11.652-9.095 17.307-6.342m7.796 22.48c.166.3.277.657.407 1.072.098.317.199.633.322.942.723 1.816-.106 4.358-.793 6.11-.036.094-.078.183-.119.271a4.46 4.46 0 0 0-.369 1.032c-.103.513-.046.928-.008 1.203.013.088.031.18.027.286-.01.341-.235.99-.416 1.232-.145-.047-.415-.21-.603-.324-.272-.162-.581-.348-.931-.492-1.055-.437-2.287-.594-3.373-.733l-.181-.022c.47-.575 1.047-1.13 1.641-1.703.603-.58 1.225-1.18 1.766-1.833 1.531-1.842 2.325-3.726 2.427-5.757.014-.299-.006-.712-.048-1.478a14.449 14.449 0 0 1-.013-.23c.098.142.188.283.264.423m-11.945 6.338c-3.307 1.338-6.781 1.27-9.786-.194-6.261-3.047-8.573-11.245-5.16-18.284l1.784.868c.244.12.515.168.786.147.83-.073 1.529-.223 2.133-.458a3.405 3.405 0 0 0-.098.713 1.5 1.5 0 0 0 .842 1.382l.161.078a1.502 1.502 0 0 0 1.737-.306c.401-.415 2.059-1.715 3.766-2.998-.387.836-.646 1.532-.731 2.096-.27 1.78.673 2.965 1.405 3.7a1.499 1.499 0 0 0 1.923.17l.085-.061c.368.25.743.323 1.049.332.061.105.135.221.228.341.926 1.207 4.682 3.333 7.731 4.933l-.053.108c-1.671 3.433-4.442 6.073-7.802 7.433M179.71 69.85c-.625.438-.962.675-1.187.87-1.534 1.332-2.527 3.118-3.034 5.46-.18.83-.268 1.69-.353 2.52-.084.822-.166 1.62-.328 2.343l-.128-.127c-.78-.77-1.663-1.642-2.659-2.206a6.872 6.872 0 0 0-.961-.427c-.205-.078-.5-.192-.627-.276.079-.291.45-.868.711-1.086.084-.069.167-.11.243-.156.24-.14.604-.35.944-.75.281-.33.449-.662.584-.927.044-.087.088-.173.138-.257.956-1.624 2.445-3.844 4.322-4.395.319-.094.629-.21.938-.327.407-.153.758-.286 1.101-.341.154-.026.319-.043.49-.053l-.194.135m2.639-3.474a2.76 2.76 0 0 1-.706.237c-.342.056-.735.067-1.15.078-.5.013-1.017.025-1.565.115-.637.105-1.189.314-1.676.498-.239.09-.478.181-.724.254-2.862.841-4.741 3.513-6.06 5.75a7.11 7.11 0 0 0-.225.417c-.075.147-.145.285-.193.342-.053.045-.113.072-.171.106a4.52 4.52 0 0 0-.653.442c-.675.562-1.999 2.23-1.782 3.797.25 1.797 1.743 2.367 2.546 2.673.193.075.387.143.554.237.648.365 1.381 1.09 2.027 1.73l.418.41c.189.18.385.35.581.516.257.219.478.407.64.6a1.5 1.5 0 0 0 2.391-.121c1.132-1.665 1.337-3.676 1.519-5.451.068-.663.133-1.296.239-1.88-.757 6.76 2.353 13.335 8.308 16.234 3.779 1.84 8.12 1.94 12.224.278a17.44 17.44 0 0 0 5.568-3.633c-.368.404-.787.806-1.225 1.229-1.285 1.237-2.74 2.64-3.353 4.559a1.498 1.498 0 0 0 1.379 1.954c.252.01.538.067.867.133.253.053.508.103.771.14l.577.076c.901.114 1.922.245 2.61.528.179.075.351.186.528.291.494.297 1.274.767 2.208.766.457 0 .951-.111 1.466-.41 1.366-.794 1.863-2.865 1.89-3.746a4.556 4.556 0 0 0-.054-.788c-.01-.067-.025-.13-.025-.188.016-.082.082-.22.15-.369.066-.143.133-.288.193-.44.946-2.416 1.89-5.544.787-8.314-.096-.24-.17-.486-.247-.728-.155-.497-.332-1.061-.641-1.622-.268-.49-.576-.905-.875-1.306-.247-.334-.482-.65-.647-.953a2.73 2.73 0 0 1-.25-.704c2.617-8.716-.433-17.407-7.34-20.77-6.91-3.365-15.633-.404-20.879 7.033"/>
        <path fill="#FFF" d="M183.766 99.316l8.174 9.775a1.502 1.502 0 0 0 2.642-.798l.705-6.396c5.054 7.868 5.69 17.97 1.454 26.669-.154.316-.322.64-.512.986l-43.95-21.398c.152-.356.304-.69.46-1.01 4.186-8.598 12.597-14.403 21.884-15.301l-4.595 4.496a1.502 1.502 0 0 0 1.002 2.57l12.736.407zm-3.969-9.6a1.5 1.5 0 0 0-1.334-.964c-11.854-.54-23.166 6.284-28.42 17.079-.368.754-.71 1.556-1.08 2.525a1.499 1.499 0 0 0 .743 1.883l46.467 22.622a1.5 1.5 0 0 0 1.942-.575c.546-.908.966-1.673 1.323-2.407 5.314-10.914 3.71-23.83-4.087-32.905a1.501 1.501 0 0 0-2.629.813l-.736 6.68-6.35-7.591a1.495 1.495 0 0 0-1.103-.537l-9.893-.315 4.805-4.701a1.502 1.502 0 0 0 .352-1.607zM81.088 84.416c.08-.016.16-.023.239-.023.513 0 .96.317 1.048.78.102.534-.31 1.063-.918 1.179-.611.114-1.185-.224-1.287-.758-.102-.533.31-1.062.918-1.178m-3.865 1.741c.362 1.898 2.07 3.217 3.997 3.217.264 0 .53-.024.799-.075v-.001c2.234-.426 3.715-2.529 3.303-4.688-.413-2.158-2.57-3.569-4.796-3.141-2.233.426-3.715 2.529-3.303 4.688"/>
        <path fill="#FFF" d="M31.983 98.424l11.92 5.834-2.677 4.622-11.642-5.998 2.399-4.458zm-4.666-46.356a1.43 1.43 0 0 1 .263-1.108c.26-.36.653-.607 1.105-.693l47.729-9.109c.89-.17 1.78.366 1.933 1.172l5.488 28.754c.153.806-.473 1.632-1.367 1.802l-24.006 4.581c-.018-.078-.026-.157-.048-.234a3.73 3.73 0 0 0-1.89-2.284 4.014 4.014 0 0 0-2.615-.326 3.963 3.963 0 0 0-.136-.672 3.716 3.716 0 0 0-1.89-2.282 3.812 3.812 0 0 0-1.627-.415l3.754-6.506c.58-1.004.73-2.192.414-3.259a3.71 3.71 0 0 0-1.89-2.279 3.828 3.828 0 0 0-1.757-.417c-1.536 0-2.98.85-3.77 2.216l-5.532 9.59a4.042 4.042 0 0 0-.715-2.837 3.953 3.953 0 0 0-2.652-1.637c-2.245-.34-4.34 1.212-4.758 3.421l-1.341 7.108-4.692-24.586zm60.716 37.757l-33.3 6.355c1.64-1.725 2.518-3.078 2.61-3.226l4.889-8.466c.046-.08.072-.168.113-.25L86.1 79.704l1.932 10.121zM37.986 78.8l.453.228a1.501 1.501 0 0 0 1.976-.589l9.192-15.93c.326-.564 1.08-.87 1.568-.624.23.117.33.314.373.46.083.28.034.61-.136.904l-9.275 16.074-.057.08a1.497 1.497 0 0 0 .433 2.115l.629.398a1.5 1.5 0 0 0 2.102-.517l3.712-6.43c.326-.568 1.084-.872 1.567-.626a.739.739 0 0 1 .374.461c.083.28.033.61-.138.904l-3.947 6.842a1.501 1.501 0 0 0 .495 2.016l.614.39a1.497 1.497 0 0 0 2.104-.516l3.57-6.189c.328-.567 1.097-.867 1.568-.626a.738.738 0 0 1 .374.462c.084.28.034.611-.136.904l-3.807 6.596a1.5 1.5 0 0 0 .493 2.015l.615.392a1.502 1.502 0 0 0 2.106-.515l3.018-5.23c.327-.567 1.08-.874 1.568-.625a.745.745 0 0 1 .376.464c.083.28.033.608-.136.9l-4.851 8.408c-.038.058-3.751 5.735-10.543 8.452l-10.465-5.32c-.302-.652-.938-2.412-.81-5.478a1.485 1.485 0 0 0-.046-.44 1.07 1.07 0 0 1-.021-.482l.477-2.53c0-.008.003-.015.004-.022l2.918-15.473c.12-.627.755-1.1 1.359-1.01a.977.977 0 0 1 .655.403c.168.237.229.531.172.831l-1.294 6.855a1.503 1.503 0 0 0 .797 1.618zm3.82 33.568a1.5 1.5 0 0 0 1.3-.748l4.2-7.249c.209-.36.259-.79.137-1.189a1.494 1.494 0 0 0-.775-.91l-.228-.112a25.491 25.491 0 0 0 3.664-2.055c.046-.004.093-.004.14-.013l39.825-7.6a1.497 1.497 0 0 0 1.192-1.754L88.767 77.67a1.5 1.5 0 0 0-1.755-1.193l-24.407 4.658a3.78 3.78 0 0 0-.698-1.27l21.123-4.03c2.535-.485 4.218-2.867 3.752-5.312l-5.488-28.755c-.467-2.444-2.902-4.036-5.443-3.556l-47.728 9.11a4.74 4.74 0 0 0-2.977 1.886 4.4 4.4 0 0 0-.776 3.424l5.204 27.272a1.502 1.502 0 0 0 1.472 1.22c.04 0 .082-.01.123-.013l-.727 3.852-.012.061-.481 2.55a4.058 4.058 0 0 0 .012 1.553c-.094 2.813.362 4.755.796 5.944a1.493 1.493 0 0 0-.732.661l-3.806 7.073a1.502 1.502 0 0 0 .634 2.045l14.268 7.352c.219.113.454.166.686.166zM241.93 215.611l-2.065-4.667a1.498 1.498 0 0 0-2.013-.749l-4.297 2.032 6.488-16.783a1.496 1.496 0 0 0-.182-1.418c-1.59-2.204-2.002-4.906-1.104-7.23 1.13-2.923 4.1-4.81 7.567-4.81a9.7 9.7 0 0 1 3.508.663c4.544 1.756 6.969 6.475 5.407 10.518-.9 2.324-3.024 4.047-5.682 4.608a1.502 1.502 0 0 0-1.09.927l-6.536 16.91zm-7.207-16.376c-.063-1.35-.12-2.627-.542-3.582-.424-.957-1.33-1.859-2.288-2.814-.677-.673-1.936-1.927-1.982-2.409.022-.492 1.22-1.805 1.866-2.51.912-.998 1.774-1.942 2.15-2.916.377-.976.374-2.253.37-3.605-.002-.955-.006-2.733.305-3.106.363-.332 2.139-.413 3.093-.456 1.35-.06 2.626-.119 3.582-.54.956-.424 1.859-1.33 2.813-2.29.674-.676 1.928-1.935 2.408-1.98.493.021 1.804 1.22 2.509 1.864.999.912 1.943 1.774 2.919 2.151.974.377 2.254.374 3.605.371.953-.005 2.732-.007 3.104.302.333.364.413 2.14.456 3.093.062 1.352.119 2.63.542 3.584.423.957 1.329 1.86 2.289 2.815.676.672 1.935 1.924 1.98 2.406-.021.492-1.22 1.805-1.865 2.51-.911 1-1.772 1.943-2.15 2.917-.376.975-.373 2.252-.371 3.604.003.956.007 2.734-.304 3.107-.363.332-2.137.413-3.09.456-1.352.061-2.63.12-3.587.543-.955.423-1.856 1.328-2.81 2.286a48.23 48.23 0 0 1-.79.778l2.05-5.304c3.277-.938 5.88-3.232 7.05-6.26 2.16-5.587-1.034-12.046-7.121-14.399a12.688 12.688 0 0 0-4.59-.866c-4.716 0-8.784 2.641-10.364 6.73-1.173 3.028-.79 6.476 1.005 9.374l-2.155 5.573c-.045-.512-.07-1.037-.087-1.427zm12.622 10.781h.038c1.657-.04 3.086-1.475 4.468-2.863.649-.652 1.458-1.465 1.899-1.66.442-.195 1.587-.248 2.508-.29 1.957-.088 3.98-.18 5.123-1.379 1.144-1.2 1.14-3.227 1.135-5.186-.001-.92-.005-2.067.17-2.516.174-.449.946-1.296 1.566-1.976 1.322-1.447 2.688-2.943 2.65-4.6-.04-1.657-1.475-3.085-2.864-4.466-.653-.65-1.465-1.459-1.661-1.9-.195-.442-.248-1.588-.29-2.507-.088-1.958-.18-3.98-1.38-5.126-1.2-1.143-3.217-1.134-5.183-1.134-.915.006-2.068.005-2.517-.169-.45-.174-1.297-.947-1.976-1.569-1.447-1.32-2.962-2.698-4.6-2.647-1.656.04-3.085 1.475-4.466 2.863-.65.653-1.46 1.466-1.901 1.66-.441.195-1.586.247-2.505.29-1.957.087-3.982.18-5.126 1.378-1.144 1.201-1.14 3.227-1.135 5.187.002.92.005 2.066-.17 2.516-.173.45-.945 1.295-1.566 1.975-1.322 1.446-2.69 2.943-2.65 4.601.04 1.656 1.476 3.085 2.864 4.467.652.65 1.466 1.46 1.66 1.901.195.441.247 1.585.289 2.505.09 1.957.182 3.98 1.392 5.136.048.044.104.085.157.128l-3.871 10.013a1.5 1.5 0 0 0 2.04 1.897l6.3-2.98 2.91 6.57c.24.543.779.893 1.37.893h.037a1.502 1.502 0 0 0 1.363-.959l3.888-10.057c.012 0 .023.004.034.004zM87.91 162.281l13.042 4.325 2.773 13.457-10.264 9.13-13.042-4.326-2.775-13.454 10.266-9.132zm26.494-5.33l13.042 4.325 2.773 13.457-10.265 9.132-1.725-.572-11.317-3.754-2.774-13.456 10.266-9.132zm-2.885 52.35l-13.042-4.327-2.775-13.457 10.266-9.13 13.042 4.325 2.774 13.455-10.265 9.133zm-18.755-17.178l3.125 15.153 16.33 5.416 12.853-11.435-3.124-15.15 11.559-10.284-3.472-16.849-16.33-5.416-11.562 10.283-14.932-4.953-12.855 11.434 3.475 16.848 14.933 4.953zM165.247 272.929a2.2 2.2 0 0 1-2.188-2.21 2.2 2.2 0 0 1 2.188-2.208c1.206 0 2.187.99 2.187 2.209 0 1.218-.981 2.209-2.187 2.209m-10.142 0a2.202 2.202 0 0 1-2.19-2.21c0-1.217.983-2.208 2.19-2.208 1.206 0 2.188.99 2.188 2.209 0 1.218-.982 2.209-2.188 2.209m-10.142 0c-1.206 0-2.188-.991-2.188-2.21 0-1.217.982-2.208 2.188-2.208 1.206 0 2.188.99 2.188 2.209 0 1.218-.982 2.209-2.188 2.209m20.284-7.418c-2.484 0-4.566 1.762-5.071 4.106-.505-2.344-2.587-4.106-5.071-4.106-2.483 0-4.566 1.76-5.071 4.105-.507-2.344-2.588-4.105-5.071-4.105-2.861 0-5.188 2.337-5.188 5.209 0 2.872 2.327 5.209 5.188 5.209 2.483 0 4.564-1.761 5.07-4.104.506 2.343 2.589 4.104 5.072 4.104 2.484 0 4.566-1.763 5.07-4.106.506 2.343 2.588 4.106 5.072 4.106 2.86 0 5.187-2.337 5.187-5.21 0-2.871-2.327-5.208-5.187-5.208"/>
        <path fill="#FFF" d="M165.538 289.494c-1.232 1.236-3.4 1.236-4.633 0l-4.18-3.387h-14.77c-1.807 0-3.278-1.48-3.278-3.303v-18.816c0-1.823 1.471-3.306 3.278-3.306h26.297c1.808 0 3.28 1.483 3.28 3.306l.008 18.717c-.208.874-2.935 3.963-6.002 6.79zm2.306-48.226c11.037 0 20.017 9.035 20.017 20.138 0 8.475-5.44 16.13-13.329 18.96v-5.875c.09-.028.18-.057.266-.103a14.761 14.761 0 0 0 7.72-12.982c0-8.132-6.584-14.747-14.674-14.747-6.643 0-12.505 4.604-14.179 11.023h-5.467c1.761-9.428 10.007-16.414 19.646-16.414zm0 15.88c.995 0 1.9.364 2.623.947a6.2 6.2 0 0 0-2.215-.413h-2.439a4.179 4.179 0 0 1 2.031-.534zm6.688 6.867c.063-.1.127-.202.166-.32a7.308 7.308 0 0 0 .371-2.289c0-4.002-3.24-7.258-7.225-7.258-2.536 0-4.883 1.354-6.185 3.534h-4.872c1.576-4.714 6.038-8.023 11.057-8.023 6.436 0 11.673 5.27 11.673 11.747 0 3.856-1.885 7.417-4.985 9.606v-6.997zm-.143 19.552c.044-.01.087-.007.131-.019 9.622-2.937 16.341-12.042 16.341-22.142 0-12.758-10.325-23.138-23.017-23.138-11.272 0-20.89 8.301-22.69 19.414h-3.199c-3.46 0-6.278 2.83-6.278 6.306v18.816c0 3.476 2.817 6.303 6.278 6.303h13.71l3.176 2.565a6.23 6.23 0 0 0 4.381 1.78c1.682 0 3.26-.654 4.395-1.797 2.8-2.576 6.07-5.928 6.772-8.088zM332.24 69.898l10.436.89-6.88 9.144c-1.559-2.557-4.114-4.278-7.51-5.014l3.953-5.02zm-22.969 68.473c-.344 7.014-3.097 10.424-8.418 10.424-1.847 0-3.554-.409-4.573-.653-.587-.14-.91-.219-1.227-.219-.948-.226-6.462-2.48-8.757-7.745-2.228-5.11-.885-11.504 3.991-19.002 13.015-20.018 29.77-40.326 32.503-43.609.345-.029.837-.059 1.426-.059 4.21 0 9.337 1.308 10.206 7.447-2.97 4.492-24.367 37.38-25.15 53.416zm12.527-63.71a1.499 1.499 0 0 0-.92.515c-.188.222-18.86 22.453-33.106 44.364-7.27 11.18-6 18.684-3.654 23.01 3.304 6.093 9.792 8.377 10.864 8.377h.028c.133.024.327.074.571.132 1.072.257 3.071.736 5.272.736 4.02 0 10.85-1.725 11.414-13.278.785-16.04 24.714-51.996 24.956-52.358.193-.288.28-.635.245-.98a14.005 14.005 0 0 0-.35-2.013l9.584-12.74a1.5 1.5 0 0 0-1.07-2.397l-13.944-1.189a1.492 1.492 0 0 0-1.305.566l-5.609 7.12c-.187-.004-.368-.018-.558-.018-1.414 0-2.377.146-2.418.152z"/>
        <path fill="#FFF" d="M300.386 132.657l-8.217-3.301c4.68-7.122 24.367-36.92 30.36-43.427l3.327 1.47c-5.388 8.838-22.246 36.75-25.47 45.258m28.249-47.308l-5.84-2.583a1.502 1.502 0 0 0-1.63.274c-5.887 5.49-31.425 44.545-32.51 46.205a1.492 1.492 0 0 0-.174 1.27c.134.429.454.775.87.942l11.442 4.596a1.506 1.506 0 0 0 1.346-.114c.404-.25.667-.676.708-1.15.294-3.426 16.387-30.822 26.46-47.285a1.499 1.499 0 0 0-.672-2.155M237.31 74.347l-10.008-.432.179-4.123c.088-2.029 1.81-3.68 3.842-3.68l2.489.104a3.851 3.851 0 0 1 3.677 4.008l-.18 4.123zm-4.335-18.395l.117.003a2.646 2.646 0 0 1 2.525 2.754 2.634 2.634 0 0 1-2.636 2.527l-.117-.003a2.62 2.62 0 0 1-1.833-.853 2.62 2.62 0 0 1-.693-1.899 2.635 2.635 0 0 1 2.637-2.529zm2.699 7.576c1.679-.916 2.852-2.642 2.94-4.69a5.648 5.648 0 0 0-5.393-5.88c-3.132-.118-5.746 2.285-5.88 5.394a5.606 5.606 0 0 0 1.479 4.056c.31.338.665.617 1.037.866a6.825 6.825 0 0 0-5.374 6.388l-.243 5.622a1.503 1.503 0 0 0 1.433 1.563l13.006.562.066.001a1.5 1.5 0 0 0 1.498-1.435l.243-5.62c.137-3.17-1.917-5.927-4.812-6.827z"/>
        <path fill="#FFF" d="M222.798 50.076l21.706.937-.097 2.217a1.5 1.5 0 0 0 1.434 1.563l.066.002a1.5 1.5 0 0 0 1.498-1.435l.096-2.217 18.756.81-1.27 29.377-43.458-1.877 1.269-29.377zm-2.896 32.31l46.456 2.006h.065a1.5 1.5 0 0 0 1.498-1.434l1.398-32.374a1.498 1.498 0 0 0-1.433-1.563l-20.256-.875.118-2.728a1.5 1.5 0 0 0-1.433-1.564 1.488 1.488 0 0 0-1.564 1.434l-.118 2.728-23.204-1.002a1.501 1.501 0 0 0-1.564 1.434l-1.397 32.374a1.495 1.495 0 0 0 1.434 1.564z"/>
        <path fill="#FFF" d="M260.719 58.292l-15-.648a1.483 1.483 0 0 0-1.563 1.434 1.498 1.498 0 0 0 1.433 1.563l15 .648.067.002a1.5 1.5 0 0 0 .063-2.999M260.433 64.916l-15-.647a1.49 1.49 0 0 0-1.563 1.433 1.498 1.498 0 0 0 1.433 1.564l15 .647a1.5 1.5 0 0 0 .13-2.997M260.147 71.541l-15-.647a1.483 1.483 0 0 0-1.564 1.433 1.5 1.5 0 0 0 1.434 1.564l15 .647a1.502 1.502 0 0 0 1.564-1.434 1.501 1.501 0 0 0-1.434-1.563M128.035 120.087l-26.421 33.009a.607.607 0 0 1-.48.226.592.592 0 0 1-.376-.131l-30.064-24.063a.617.617 0 0 1-.096-.856l26.422-33.01a.608.608 0 0 1 .479-.226c.098 0 .242.023.377.13l30.064 24.064a.605.605 0 0 1 .222.409.606.606 0 0 1-.127.448m1.78-3.2L99.75 92.826a3.613 3.613 0 0 0-2.252-.79 3.594 3.594 0 0 0-2.821 1.352l-26.422 33.01a3.615 3.615 0 0 0 .563 5.073l30.064 24.064a3.616 3.616 0 0 0 2.252.788 3.593 3.593 0 0 0 2.82-1.351l26.422-33.01a3.587 3.587 0 0 0 .767-2.652 3.587 3.587 0 0 0-1.33-2.421"/>
        <path fill="#FFF" d="M98.08 104.449l6.615 5.295-2.578 3.22-6.615-5.295 2.578-3.22zm-5.624 4.625l8.957 7.17c.277.222.608.329.937.329.44 0 .876-.192 1.172-.562l4.453-5.563a1.502 1.502 0 0 0-.234-2.108l-8.957-7.17a1.5 1.5 0 0 0-2.109.233l-4.452 5.563a1.496 1.496 0 0 0 .233 2.108zM119.942 122.088l-10.49-8.396a1.499 1.499 0 1 0-1.875 2.34l10.49 8.398a1.498 1.498 0 0 0 2.108-.234 1.5 1.5 0 0 0-.233-2.108M90.226 114.26l6.615 5.296-2.577 3.22-6.616-5.294 2.578-3.221zm-5.624 4.626l8.958 7.17a1.496 1.496 0 0 0 2.108-.233l4.453-5.563a1.499 1.499 0 0 0-.234-2.108l-8.957-7.17a1.505 1.505 0 0 0-2.109.233l-4.452 5.563a1.5 1.5 0 0 0 .233 2.108zM112.088 131.9l-10.49-8.396a1.499 1.499 0 1 0-1.875 2.341l10.49 8.397a1.498 1.498 0 0 0 2.108-.234 1.5 1.5 0 0 0-.233-2.108M86.41 132.589l-6.615-5.295 2.577-3.221 6.616 5.296-2.578 3.22zm5.624-4.625l-8.958-7.17a1.5 1.5 0 0 0-2.108.233l-4.453 5.563a1.499 1.499 0 0 0 .234 2.108l8.957 7.17a1.503 1.503 0 0 0 2.109-.233l4.452-5.563a1.5 1.5 0 0 0-.233-2.108zM104.235 141.712l-10.49-8.396a1.499 1.499 0 1 0-1.875 2.341l10.49 8.397a1.498 1.498 0 0 0 2.108-.234 1.5 1.5 0 0 0-.233-2.108M229.12 320.172l-10.178 4.71c-.697-.151-2.483-.704-4.882-2.607a1.505 1.505 0 0 0-.359-.211 1.24 1.24 0 0 1-.424-.284l-12.492-13.091c-.417-.438-.452-1.111-.076-1.47a.871.871 0 0 1 .611-.233c.313 0 .623.138.852.378l4.751 4.98a1.504 1.504 0 0 0 1.717.326l.441-.205a1.499 1.499 0 0 0 .73-1.991l-7.507-16.216a1.251 1.251 0 0 1-.073-.89c.041-.133.15-.373.397-.488.371-.174.967.005 1.262.644l7.576 16.363a1.497 1.497 0 0 0 1.931.976l.677-.237a1.498 1.498 0 0 0 .865-2.046l-3.03-6.544c-.254-.55-.105-1.182.323-1.381.37-.172.966.006 1.262.645l3.225 6.962a1.498 1.498 0 0 0 1.857.786l.663-.232a1.5 1.5 0 0 0 .866-2.046l-2.916-6.297c-.254-.55-.104-1.182.326-1.381.371-.172.965.006 1.261.644l3.11 6.715a1.498 1.498 0 0 0 1.854.786l.664-.231a1.498 1.498 0 0 0 .867-2.046l-2.464-5.325c-.254-.55-.105-1.181.323-1.38.372-.17.968.006 1.263.645l3.964 8.556c.025.063 2.432 6.062.762 12.716m-20.347-41.9c4.212-.773 8.977-.012 13.411 2.14 4.435 2.153 7.978 5.424 9.978 9.212 1.92 3.636 2.17 7.303.702 10.325-.683 1.408-1.712 2.59-3.032 3.554l-2.715-5.862c-.685-1.487-2.139-2.447-3.7-2.447a3.663 3.663 0 0 0-3.123 1.735c-1.125-.905-2.73-1.167-4.039-.56-.8.372-1.407 1-1.777 1.757-1.054-.607-2.39-.71-3.504-.193a3.669 3.669 0 0 0-1.28.984l-3.08-6.654c-.687-1.485-2.14-2.445-3.7-2.445-.54 0-1.06.115-1.546.339-.658.305-1.2.814-1.584 1.437-.757-2.636-.643-5.245.444-7.485 1.467-3.022 4.501-5.095 8.545-5.836m23.052 43.384c1.785-6.151.436-13.005-.785-15.328 1.98-1.304 3.538-3.041 4.522-5.07 1.896-3.903 1.63-8.533-.747-13.035-2.296-4.35-6.316-8.081-11.32-10.511-5.005-2.43-10.426-3.278-15.263-2.392-4.504.827-8.019 3.068-10.062 6.35-1.447-.364-2.973-.14-4.404.688-1.422.823-2.694 2.205-3.488 3.793-1.716 3.42-.704 6.542.581 9.703l.335.815c.897 2.162 1.438 3.467.981 5.729-.282 1.39-.872 2.876-1.579 3.974-1.184 1.839-3.233 1.793-6.466 1.499a57.006 57.006 0 0 0-1.156-.098 1.496 1.496 0 0 0-1.606 1.385 1.502 1.502 0 0 0 1.386 1.607c.361.025.73.059 1.104.093.898.082 1.86.169 2.825.169 2.397 0 4.832-.537 6.437-3.033.91-1.415 1.638-3.238 1.995-5.002.64-3.16-.189-5.158-1.15-7.472l-.327-.795c-1.092-2.686-1.835-4.923-.678-7.231.532-1.061 1.394-2.011 2.306-2.538.546-.315 1.08-.45 1.601-.441-1.616 5.244.336 11.512 5.27 16.518l1.796 3.882c-1.534-1.233-3.91-1.19-5.294.133-1.579 1.506-1.59 4.067-.023 5.71l12.495 13.097c.354.368.77.666 1.238.888 3.786 2.955 6.44 3.175 6.733 3.19a1.511 1.511 0 0 0 .709-.137l11.225-5.196a1.5 1.5 0 0 0 .81-.944"/>
        <path fill="#FFF" d="M204.536 287.87l6.573 3.188a1.502 1.502 0 0 0 1.31-2.699l-6.573-3.189a1.5 1.5 0 1 0-1.31 2.7M221.701 236.68a1.501 1.501 0 0 0-1.702 2.472c.537.37 5.16 3.746 2.09 8.377a1.498 1.498 0 0 0 1.248 2.329 1.5 1.5 0 0 0 1.252-.671c3.787-5.713-.234-10.68-2.888-12.507"/>
        <path fill="#FFF" d="M223.304 252.863c-1.142 1.027-2.002 2.961-2.002 4.498v3.631a.533.533 0 0 1-.527.526h-6.461a.534.534 0 0 1-.528-.526v-3.63c0-1.537-.86-3.47-2.001-4.498-1.294-1.166-4.65-4.915-4.65-8.215 0-5.739 4.669-10.408 10.409-10.408 5.739 0 10.408 4.67 10.408 10.408 0 3.283-3.357 7.045-4.648 8.214m7.648-8.214c0-7.393-6.014-13.408-13.408-13.408-7.394 0-13.41 6.015-13.41 13.408 0 5.296 5.412 10.235 5.644 10.444.508.458 1.008 1.583 1.008 2.268v3.631a3.531 3.531 0 0 0 3.528 3.526h6.46a3.531 3.531 0 0 0 3.528-3.526v-3.63c0-.686.5-1.81 1.01-2.27.23-.208 5.64-5.147 5.64-10.443M191.352 246.348l9.89-1.67a1.5 1.5 0 1 0-.5-2.958l-9.89 1.67a1.5 1.5 0 0 0 .5 2.958M245.464 244.62a1.5 1.5 0 0 0-1.73-1.23l-9.888 1.67a1.502 1.502 0 0 0-1.23 1.73 1.502 1.502 0 0 0 1.73 1.227l9.889-1.669a1.5 1.5 0 0 0 1.229-1.729M217.286 217.285a1.501 1.501 0 0 0-1.222 1.734l1.692 9.763a1.498 1.498 0 0 0 1.733 1.223 1.5 1.5 0 0 0 1.223-1.734l-1.692-9.763a1.497 1.497 0 0 0-1.734-1.223M199.704 225.182a1.5 1.5 0 1 0-1.719 2.459l8.19 5.725a1.498 1.498 0 0 0 1.719-2.459l-8.19-5.725zM227.192 258.834l8.188 5.723a1.502 1.502 0 0 0 2.09-.37 1.5 1.5 0 0 0-.37-2.089l-8.189-5.724a1.5 1.5 0 1 0-1.719 2.46M230.44 235.993c.467 0 .928-.217 1.22-.625l5.8-8.083a1.5 1.5 0 0 0-2.439-1.749l-5.799 8.083a1.501 1.501 0 0 0 1.218 2.374M197.97 264.546c.266.19.57.28.874.28.467 0 .927-.216 1.22-.625l5.798-8.085a1.5 1.5 0 0 0-2.438-1.748l-5.798 8.085a1.5 1.5 0 0 0 .345 2.093M222.898 265.87h-10.43a1.5 1.5 0 1 0 0 3h10.43a1.5 1.5 0 1 0 0-3M222.898 270.295h-10.43a1.5 1.5 0 1 0 0 3h10.43a1.5 1.5 0 1 0 0-3M273.805 110.272l-40.16-12.613a4.303 4.303 0 0 1-2.516-2.071 4.006 4.006 0 0 1-.317-3.123l.439-1.396a4.004 4.004 0 0 1 2.045-2.381 4.314 4.314 0 0 1 3.249-.26l38.787 12.182c-.9 1.054-1.817 2.527-2.158 4.408-.308 1.712-.091 3.47.63 5.254zm-11.823 53.908l-42.976-13.497c-.838-.286-3.19-1.355-3.998-2.843a4.643 4.643 0 0 1-.512-1.727l.397-1.263a22.691 22.691 0 0 0 6.593 3.332 22.806 22.806 0 0 0 6.832 1.051c10.097 0 18.932-6.525 21.983-16.239a23.122 23.122 0 0 0 .819-10.352 1.462 1.462 0 0 0-.075-.452c-1.394-8.266-7.222-15.467-15.701-18.13a22.756 22.756 0 0 0-6.833-1.053c-.344 0-.682.027-1.022.042l1.604-5.109a7.293 7.293 0 0 0 3.654 2.582l44.809 14.072-15.574 49.586zm-52.735-32.392l3.297 1.035c.068 1.886.307 3.706.746 5.406.147.564.32 1.1.502 1.625a20.172 20.172 0 0 1-4.545-8.066zm35.038-12.37c-.067-1.885-.306-3.706-.746-5.406a20.823 20.823 0 0 0-.501-1.623 20.152 20.152 0 0 1 4.542 8.064l-3.295-1.035zm-.908 19.944l-4.042-1.27a34.043 34.043 0 0 0 2.877-6.066l4.72 1.483a20.277 20.277 0 0 1-3.555 5.853zm-5.795 1.325l3.34 1.049a19.854 19.854 0 0 1-8.456 4.05c1.832-1.316 3.566-3.046 5.116-5.099zm-18.221-5.724a48.205 48.205 0 0 0-.551 4.537 26.28 26.28 0 0 0-.034 3.306c-1.132-1.354-2.016-3.147-2.58-5.328a21.747 21.747 0 0 1-.6-3.697l3.765 1.182zm-2.778-10.986l4.982 1.565a83.244 83.244 0 0 0-1.648 6.452l-4.374-1.374c.092-2.159.443-4.397 1.04-6.643zm2.664-12.422l-3.343-1.05a19.857 19.857 0 0 1 8.462-4.051c-1.832 1.316-3.567 3.046-5.12 5.101zm18.223 5.723a48.5 48.5 0 0 0 .549-4.537c.084-1.238.092-2.334.034-3.307 1.132 1.354 2.017 3.147 2.58 5.329.304 1.172.498 2.413.6 3.697l-3.763-1.182zm-5.454 18.516a87.076 87.076 0 0 0 2.354-6.23l4.983 1.564a31.439 31.439 0 0 1-2.947 6.044l-4.39-1.378zm-5.267 9.554c1.425-1.781 2.798-4.199 4.034-6.797l3.782 1.188c-2.352 2.886-5.08 4.89-7.816 5.609zm4.755-16.685a79.29 79.29 0 0 1-2.348 6.233l-6.366-1.999a80.18 80.18 0 0 1 1.637-6.457l7.077 2.223zm-6.69-12.215a87.59 87.59 0 0 0-2.354 6.23l-4.983-1.565a31.439 31.439 0 0 1 2.947-6.044l4.39 1.379zm1.234-2.757l-3.783-1.189c2.352-2.885 5.079-4.89 7.816-5.609-1.424 1.782-2.797 4.199-4.033 6.798zm-.722 9.888a80.094 80.094 0 0 1 2.348-6.233l6.364 1.999a78.854 78.854 0 0 1-1.635 6.456l-7.077-2.222zm9.25-7.21l-5.644-1.773c2.423-4.979 4.596-7.605 5.448-7.689l.03.007c.713.569 1.017 3.977.166 9.455zm-12.323 19.503l5.642 1.772c-2.401 4.914-4.573 7.534-5.506 7.662-.692-.636-.977-4.028-.136-9.434zm17.993-7.608l-4.98-1.564a83.34 83.34 0 0 0 1.647-6.452l4.373 1.373c-.091 2.159-.442 4.397-1.04 6.643zm7.99-4.46c.249 2.236.12 4.542-.42 6.838l-4.708-1.479a34.534 34.534 0 0 0 1.124-6.617l4.004 1.258zm-34.785-10.926l4.043 1.271a34.178 34.178 0 0 0-2.877 6.066l-4.723-1.483a20.263 20.263 0 0 1 3.557-5.854zm-4.86 15.559a20.125 20.125 0 0 1 .419-6.838l4.712 1.479a34.38 34.38 0 0 0-1.124 6.617l-4.007-1.258zm23.353-42.427c-1.724.87-2.987 2.348-3.555 4.16l-.44 1.396a7.203 7.203 0 0 0-.196.808 1.456 1.456 0 0 0-.165.344l-3.362 10.704a22.862 22.862 0 0 0-12.382 6.764l-.004.004a23.316 23.316 0 0 0-5.314 9.056 23.13 23.13 0 0 0-.818 10.367c.004.147.028.291.073.429a23.173 23.173 0 0 0 6.628 12.705l-.864 2.748c-.054.175-.077.36-.065.544.074 1.188.374 2.274.89 3.231 1.516 2.789 5.254 4.113 5.705 4.264l44.439 13.958a1.498 1.498 0 0 0 1.88-.982l16.473-52.448a1.5 1.5 0 0 0-.982-1.88l-1.918-.602c-1.54-2.139-2.168-4.157-1.845-6.001.344-1.965 1.686-3.329 2.433-3.957l1.834.576a1.5 1.5 0 1 0 .897-2.863l-43.842-13.769a7.283 7.283 0 0 0-5.5.444zM133.669 187.065c.223-1.295 1.645-3.396 4.32-5.17 2.043-1.354 4.302-2.163 6.042-2.163.832 0 1.455.194 1.723.53l.03.049c.144.21.189.509.122.9-.222 1.294-1.644 3.394-4.32 5.167-2.042 1.355-4.302 2.164-6.042 2.164-.811 0-1.418-.186-1.697-.505l-.051-.056c-.15-.211-.195-.517-.127-.916zm38.5 36.162c-.216.33-.75.929-1.683 1.547-1.071.71-1.93.96-2.305 1.007l-6.27-6.891a10.636 10.636 0 0 0 2.899-1.36c1.008-.667 1.848-1.448 2.467-2.265l4.21 6.846.682 1.116zm-19.53-21.866c1.653-1.096 2.96-2.41 3.784-3.75l9.017 14.666c.046.336-.546 1.599-2.288 2.753-1.906 1.264-3.477 1.285-3.75 1.1l-11.574-12.723c1.526-.29 3.193-.972 4.812-2.046zm-4.611-17.401l6.336 10.304-.047.035c.1.135.087.37.057.543-.17.993-1.285 2.62-3.393 4.019-2.894 1.918-5.501 1.984-5.956 1.38l-.044.035-8.05-8.85c2.018-.291 4.247-1.177 6.314-2.547 2.165-1.436 3.826-3.174 4.783-4.92zm-21.093 54.355a1.497 1.497 0 0 0 2.114-.168l18.705-21.942-7.538 27.785a1.5 1.5 0 1 0 2.895.785l8.796-32.421 14.282 15.703.924 1.005.42-.317c1.393.217 3.215-.544 4.61-1.471 1.645-1.09 2.69-2.312 3.012-3.433l.736-.295-27.643-44.957-.008.005c-.027-.04-.043-.083-.071-.121-.6-.794-1.802-1.741-4.138-1.741-2.341 0-5.147.97-7.7 2.663-3.101 2.056-5.202 4.734-5.62 7.162-.211 1.237.029 2.359.696 3.246.026.035.06.07.088.106l.013.015c.076.092.16.185.254.279l17.39 19.12-31.155 14.04a1.501 1.501 0 0 0 1.232 2.737l26.22-11.817-18.683 21.917a1.5 1.5 0 0 0 .169 2.115zM295.041 257.334c0 1.131-.895 2.051-1.996 2.051h-39.508c-1.1 0-1.996-.92-1.996-2.051v-34.99c0-1.13.896-2.049 1.996-2.049h3.923v.986a1.5 1.5 0 0 0 3 0v-.986h4.166v.986a1.5 1.5 0 0 0 3 0v-.986h4.165v.986a1.5 1.5 0 0 0 3 0v-.986h4.166v.986a1.5 1.5 0 1 0 3 0v-.986h4.166v.986a1.5 1.5 0 1 0 3 0v-.986h3.922c1.101 0 1.996.919 1.996 2.049v34.99zm3 0v-34.99c0-2.784-2.241-5.049-4.996-5.049h-3.922v-2.91a1.5 1.5 0 1 0-3 0v2.91h-4.166v-2.91a1.5 1.5 0 1 0-3 0v2.91h-4.166v-2.91a1.5 1.5 0 1 0-3 0v2.91h-4.165v-2.91a1.5 1.5 0 1 0-3 0v2.91h-4.166v-2.91a1.5 1.5 0 1 0-3 0v2.91h-3.923c-2.755 0-4.996 2.265-4.996 5.049v34.99c0 2.785 2.241 5.051 4.996 5.051h39.508c2.755 0 4.996-2.266 4.996-5.051z"/>
        <mask id="d" fill="#fff">
            <use xlink:href="#c"/>
        </mask>
        <path fill="#FFF" d="M257.196 253.912h32.495v-21.437h-32.495v21.437zm33.995-24.437h-35.495a1.5 1.5 0 0 0-1.5 1.5v24.437a1.5 1.5 0 0 0 1.5 1.5h35.495a1.5 1.5 0 0 0 1.5-1.5v-24.437a1.5 1.5 0 0 0-1.5-1.5z" mask="url(#d)"/>
        <path fill="#FFF" d="M261.982 238.945h3.12a1.5 1.5 0 1 0 0-3h-3.12a1.5 1.5 0 1 0 0 3M271.883 238.945h3.12a1.5 1.5 0 1 0 0-3h-3.12a1.5 1.5 0 1 0 0 3M281.785 238.945h3.12a1.5 1.5 0 0 0 0-3h-3.12a1.5 1.5 0 1 0 0 3M261.982 244.693h3.12a1.5 1.5 0 1 0 0-3h-3.12a1.5 1.5 0 1 0 0 3M271.883 244.693h3.12a1.5 1.5 0 1 0 0-3h-3.12a1.5 1.5 0 1 0 0 3M281.785 244.693h3.12a1.5 1.5 0 0 0 0-3h-3.12a1.5 1.5 0 1 0 0 3M261.982 250.44h3.12a1.5 1.5 0 1 0 0-3h-3.12a1.5 1.5 0 1 0 0 3M271.883 250.44h3.12a1.5 1.5 0 1 0 0-3h-3.12a1.5 1.5 0 1 0 0 3M281.785 250.44h3.12a1.5 1.5 0 0 0 0-3h-3.12a1.5 1.5 0 1 0 0 3M51.12 133.929c9.723 0 17.633 7.91 17.633 17.634 0 9.722-7.91 17.632-17.633 17.632-9.723 0-17.634-7.91-17.634-17.632 0-9.723 7.91-17.634 17.634-17.634m0 38.266c11.377 0 20.633-9.256 20.633-20.632 0-11.378-9.256-20.634-20.633-20.634-11.377 0-20.634 9.256-20.634 20.634 0 11.376 9.257 20.632 20.634 20.632" mask="url(#d)"/>
        <path fill="#FFF" d="M77.844 150.116a1.144 1.144 0 0 1 0 2.287c-.63 0-1.144-.514-1.144-1.144 0-.63.514-1.143 1.144-1.143zM48.96 178.888h3.05v-.687h-3.05v.687zm6.047-2.206a1.499 1.499 0 0 0-1.498-1.48H47.46a1.5 1.5 0 0 0-1.5 1.5v3.686a1.5 1.5 0 0 0 1.5 1.5h6.05a1.5 1.5 0 0 0 1.5-1.5v-.698c13.146-.757 23.687-11.386 24.302-24.569a4.141 4.141 0 0 0 2.674-3.862 4.147 4.147 0 0 0-4.142-4.143 4.148 4.148 0 0 0-4.144 4.143 4.145 4.145 0 0 0 2.611 3.842c-.599 11.54-9.805 20.832-21.304 21.581zM39.76 156.427a12.296 12.296 0 0 1-.994-4.865c0-6.81 5.542-12.353 12.353-12.353 1.67 0 3.287.326 4.807.97a1.5 1.5 0 1 0 1.17-2.763 15.24 15.24 0 0 0-5.977-1.207c-8.465 0-15.353 6.887-15.353 15.353 0 2.096.415 4.131 1.235 6.046a1.502 1.502 0 0 0 1.97.788 1.499 1.499 0 0 0 .788-1.969" mask="url(#d)"/>
        <path fill="#FFF" d="M51.12 155.72a4.163 4.163 0 0 1-4.16-4.157 4.163 4.163 0 0 1 4.16-4.16 4.163 4.163 0 0 1 4.159 4.16 4.163 4.163 0 0 1-4.16 4.158m0-11.317a7.166 7.166 0 0 0-7.158 7.159c0 3.947 3.21 7.158 7.159 7.158 3.948 0 7.159-3.211 7.159-7.158a7.166 7.166 0 0 0-7.16-7.16M15.5 275.918a1.5 1.5 0 1 0 2.979-.351 9.707 9.707 0 0 1 1.25-6.033 9.723 9.723 0 0 1 5.947-4.555 9.716 9.716 0 0 1 7.427.985 1.5 1.5 0 1 0 1.502-2.597 12.696 12.696 0 0 0-9.704-1.286 12.697 12.697 0 0 0-7.768 5.95 12.681 12.681 0 0 0-1.633 7.887M10.774 372.849c-.005-.01-.44-.861-.198-2.623.06-.328.59-1.421.943-2.144.652-1.341 1.268-2.608 1.408-3.544.704-4.705-1.873-7.348-4.74-7.88-3.102-.58-6.831 1.167-7.7 5.08a1.499 1.499 0 1 0 2.929.65c.475-2.143 2.522-3.096 4.224-2.78 1.822.338 2.69 2.015 2.32 4.486-.072.483-.714 1.803-1.14 2.677-.69 1.418-1.117 2.323-1.215 3.039-.388 2.817.426 4.306.593 4.575.287.464.792.726 1.305.726.265 0 .532-.071.772-.218.705-.437.935-1.34.499-2.044M12.411 377.113a1.5 1.5 0 1 0-2.805 1.063l.624 1.645a1.5 1.5 0 1 0 2.805-1.063l-.624-1.645zM12.45 192.632c-1.284-2.05-2.817-4.761-3.66-6.721 3.043.515 8.323 1.352 12.02 1.632l-4.76 5.363-3.6-.274zm1.42 4.535l-.997.287.258-1.762 1.29.099-.551 1.376zm2.173-51.823l8.78.747c-.04 6.178-.301 31.245-1.872 38.547h-.015c-3.473 0-11.203-1.264-14.485-1.83 2.234-12.803 5.982-32.643 7.592-37.464zm40.272 42.648a1.5 1.5 0 0 0-1.857-1.026l-37.615 10.846.839-2.092c.029-.071.046-.144.063-.216.018-.018.038-.032.055-.05l7.45-8.393c.23-.258.347-.58.366-.908.053-.103.11-.202.14-.318 1.978-7.893 2.07-39.764 2.074-41.117a1.5 1.5 0 0 0-1.372-1.498l-11.254-.96a1.507 1.507 0 0 0-1.441.77c-2.056 3.726-7.75 36.275-8.391 39.974a1.451 1.451 0 0 0-.021.307 1.495 1.495 0 0 0-.184.813c.206 2.873 4.087 9.086 5.07 10.619l-.668 4.58a1.48 1.48 0 0 0 .039.575l-6.97 2.009a1.501 1.501 0 0 0 .833 2.883l51.818-14.941a1.5 1.5 0 0 0 1.026-1.857zM347.75 242.965l16.443 6.187a1.502 1.502 0 0 0 1.933-.875 1.5 1.5 0 0 0-.876-1.932l-16.443-6.188a1.5 1.5 0 1 0-1.057 2.808M350.303 236.18l16.443 6.188a1.5 1.5 0 0 0 1.057-2.807l-16.443-6.188a1.501 1.501 0 0 0-1.057 2.808M352.856 229.394l16.443 6.187a1.501 1.501 0 0 0 1.057-2.807l-16.443-6.188a1.5 1.5 0 0 0-1.057 2.808M349.326 198.376l-3.475-1.308a1.5 1.5 0 0 0-1.057 2.808l3.474 1.308a1.5 1.5 0 0 0 1.058-2.808M360.21 202.473l-3.474-1.308a1.5 1.5 0 1 0-1.055 2.808l3.474 1.308a1.501 1.501 0 0 0 1.056-2.808M371.098 206.568l-3.475-1.308a1.5 1.5 0 1 0-1.057 2.808l3.474 1.308a1.5 1.5 0 0 0 1.058-2.808M209.976 35.013l-4.152 1.056a1.5 1.5 0 1 0 .739 2.907l4.152-1.056a1.5 1.5 0 1 0-.74-2.907M341.769 24.822l5.758-11.708a2.968 2.968 0 0 1 2.64-1.658c.429 0 .84.096 1.225.285l11.51 5.661c1.417.696 1.988 2.446 1.272 3.9l-5.758 11.707c-.685 1.395-2.49 2.05-3.864 1.372l-11.511-5.66c-1.416-.697-1.987-2.446-1.272-3.899m-.052 6.591l11.51 5.66c.8.394 1.657.593 2.549.593 2.244 0 4.337-1.308 5.334-3.333l5.757-11.707c1.445-2.938.26-6.49-2.64-7.917l-11.511-5.66a5.714 5.714 0 0 0-2.548-.593c-2.245 0-4.337 1.31-5.334 3.334l-5.756 11.708c-1.446 2.937-.261 6.488 2.639 7.915M322.994 12.543l8.657 4.258a1.503 1.503 0 0 0 2.009-.684 1.502 1.502 0 0 0-.685-2.009l-8.657-4.257a1.504 1.504 0 0 0-2.009.684 1.501 1.501 0 0 0 .685 2.008M325.117 8.225l8.658 4.258a1.503 1.503 0 0 0 2.009-.684 1.502 1.502 0 0 0-.685-2.01l-8.658-4.256a1.504 1.504 0 0 0-2.009.684 1.502 1.502 0 0 0 .685 2.008" mask="url(#d)"/>
        <path fill="#FFF" d="M348.13 26.211c.16 0 .324-.026.484-.08l2.63-.897.845 2.477a1.502 1.502 0 0 0 1.904.936 1.502 1.502 0 0 0 .936-1.904l-.844-2.476 4.213-1.435a1.501 1.501 0 0 0-.968-2.84l-4.213 1.435-1.487-4.367a1.5 1.5 0 1 0-2.84.968l1.487 4.367-2.63.896a1.498 1.498 0 0 0 .484 2.92M210.385 26.06l-3.6.914a1.501 1.501 0 0 0 .37 2.954c.123 0 .248-.015.372-.047l3.597-.915a1.5 1.5 0 1 0-.74-2.907M219.633 26.803l3.603-.916a1.5 1.5 0 0 0-.741-2.907l-3.601.916a1.5 1.5 0 1 0 .739 2.907M236.43 20.985a1.497 1.497 0 0 0-1.823-1.084l-3.602.916a1.5 1.5 0 1 0 .739 2.907l3.602-.916a1.5 1.5 0 0 0 1.084-1.823M248.537 17.906a1.497 1.497 0 0 0-1.823-1.084l-3.599.915a1.5 1.5 0 0 0 .74 2.907l3.598-.915a1.5 1.5 0 0 0 1.084-1.823M223.952 31.459l-4.155 1.057a1.5 1.5 0 1 0 .738 2.907l4.156-1.057a1.5 1.5 0 1 0-.739-2.907M237.93 27.905l-4.155 1.057a1.5 1.5 0 0 0 .74 2.907l4.155-1.057a1.5 1.5 0 1 0-.74-2.907M246.668 27.231a1.5 1.5 0 0 0 1.822 1.084l4.154-1.056a1.501 1.501 0 0 0-.741-2.907l-4.151 1.056a1.499 1.499 0 0 0-1.084 1.823M154.028 11.528c.384 0 .768-.146 1.06-.439l2.76-2.759a1.5 1.5 0 0 0-2.121-2.122l-2.76 2.76a1.502 1.502 0 0 0 1.06 2.56M157.25 15.371c.293.293.678.44 1.061.44.383 0 .768-.147 1.06-.44l5.517-5.517a1.5 1.5 0 1 0-2.12-2.12l-5.518 5.516a1.5 1.5 0 0 0 0 2.121M164.044 14.526l-2.759 2.76a1.5 1.5 0 1 0 2.121 2.12l2.76-2.759a1.5 1.5 0 1 0-2.122-2.12M165.567 23.69c.293.293.677.438 1.06.438.384 0 .769-.145 1.06-.439l5.519-5.517a1.5 1.5 0 1 0-2.121-2.122l-5.518 5.518a1.5 1.5 0 0 0 0 2.121M172.36 22.844l-2.757 2.76a1.5 1.5 0 1 0 2.122 2.12l2.758-2.759a1.5 1.5 0 1 0-2.122-2.12M173.885 32.007c.293.293.677.439 1.061.439.383 0 .768-.146 1.06-.44l5.518-5.517a1.5 1.5 0 1 0-2.12-2.121l-5.519 5.518a1.5 1.5 0 0 0 0 2.12M118.236 374.122l10.76 2.33a1.499 1.499 0 0 0 1.783-1.148 1.5 1.5 0 0 0-1.148-1.785l-10.76-2.329a1.499 1.499 0 1 0-.635 2.932M303.86 389.148a1.5 1.5 0 0 0 .843-2.742l-17.469-11.824a1.5 1.5 0 1 0-1.682 2.485l17.467 11.823c.258.175.551.258.84.258" mask="url(#d)"/>
    </g>
</svg>
